<svg class="generator__canvas" viewBox="0 0 200 200" xmlns="http://www.w3.org/2000/svg" version="1.1" xmlns:xlink="http://www.w3.org/1999/xlink" xmlns:svgjs="http://svgjs.dev/svgjs"><circle r="5" cx="5" cy="5" fill="#05445e" transform="matrix(0.3857036951579362,0,0,0.3857036951579362,3.071481524210319,3.071481524210319)"></circle><circle r="5" cx="5" cy="15" fill="#05445e" transform="matrix(0.3873034102281079,0,0,0.3873034102281079,3.063482948859461,9.19044884657838)"></circle><circle r="5" cx="5" cy="25" fill="#05445e" transform="matrix(0.38957899483338276,0,0,0.38957899483338276,3.052105025833086,15.260525129165432)"></circle><circle r="5" cx="5" cy="35" fill="#05445e" transform="matrix(0.39245451063847964,0,0,0.39245451063847964,3.037727446807602,21.264092127653214)"></circle><circle r="5" cx="5" cy="45" fill="#05445e" transform="matrix(0.39563994118302104,0,0,0.39563994118302104,3.021800294084895,27.196202646764053)"></circle><circle r="5" cx="5" cy="55" fill="#05445e" transform="matrix(0.39817360237715926,0,0,0.39817360237715926,3.009131988114204,33.10045186925624)"></circle><circle r="5" cx="5" cy="65" fill="#05445e" transform="matrix(0.3986814701529958,0,0,0.3986814701529958,3.006592649235021,39.08570444005527)"></circle><circle r="5" cx="5" cy="75" fill="#05445e" transform="matrix(0.39581514021525704,0,0,0.39581514021525704,3.020924298923715,45.313864483855724)"></circle><circle r="5" cx="5" cy="85" fill="#05445e" transform="matrix(0.38853921844198336,0,0,0.38853921844198336,3.057303907790083,51.97416643243142)"></circle><circle r="5" cx="5" cy="95" fill="#05445e" transform="matrix(0.37629227318673764,0,0,0.37629227318673764,3.118538634066312,59.252234047259925)"></circle><circle r="5" cx="5" cy="105" fill="#05445e" transform="matrix(0.35904877295147924,0,0,0.35904877295147924,3.2047561352426035,67.29987884009468)"></circle><circle r="5" cx="5" cy="115" fill="#05445e" transform="matrix(0.3373061982938709,0,0,0.3373061982938709,3.3134690085306455,76.20978719620484)"></circle><circle r="5" cx="5" cy="125" fill="#05445e" transform="matrix(0.3120184384710659,0,0,0.3120184384710659,3.4399078076446705,85.99769519111676)"></circle><circle r="5" cx="5" cy="135" fill="#05445e" transform="matrix(0.28449366120395436,0,0,0.28449366120395436,3.5775316939802284,96.59335573746617)"></circle><circle r="5" cx="5" cy="145" fill="#05445e" transform="matrix(0.25627207807143276,0,0,0.25627207807143276,3.7186396096428362,107.84054867964224)"></circle><circle r="5" cx="5" cy="155" fill="#05445e" transform="matrix(0.2289964184135035,0,0,0.2289964184135035,3.8550179079324827,119.50555514590695)"></circle><circle r="5" cx="5" cy="165" fill="#05445e" transform="matrix(0.20428547123490087,0,0,0.20428547123490087,3.978572643825496,131.29289724624135)"></circle><circle r="5" cx="5" cy="175" fill="#05445e" transform="matrix(0.1836187574574949,0,0,0.1836187574574949,4.081906212712526,142.8667174449384)"></circle><circle r="5" cx="5" cy="185" fill="#05445e" transform="matrix(0.16823825396991704,0,0,0.16823825396991704,4.158808730150415,153.87592301556535)"></circle><circle r="5" cx="5" cy="195" fill="#05445e" transform="matrix(0.1590711062667183,0,0,0.1590711062667183,4.204644468666409,163.98113427798992)"></circle><circle r="5" cx="15" cy="5" fill="#05445e" transform="matrix(0.34835435952242866,0,0,0.34835435952242866,9.77468460716357,3.2582282023878566)"></circle><circle r="5" cx="15" cy="15" fill="#05445e" transform="matrix(0.35112552736433733,0,0,0.35112552736433733,9.73311708953494,9.73311708953494)"></circle><circle r="5" cx="15" cy="25" fill="#05445e" transform="matrix(0.35506367936382727,0,0,0.35506367936382727,9.67404480954259,16.123408015904317)"></circle><circle r="5" cx="15" cy="35" fill="#05445e" transform="matrix(0.3599804987356172,0,0,0.3599804987356172,9.600292518965741,22.4006825442534)"></circle><circle r="5" cx="15" cy="45" fill="#05445e" transform="matrix(0.3655145891604392,0,0,0.3655145891604392,9.517281162593411,28.551843487780236)"></circle><circle r="5" cx="15" cy="55" fill="#05445e" transform="matrix(0.3708278163959029,0,0,0.3708278163959029,9.437582754061456,34.60447009822534)"></circle><circle r="5" cx="15" cy="65" fill="#05445e" transform="matrix(0.374588905469861,0,0,0.374588905469861,9.381166417952084,40.65172114445903)"></circle><circle r="5" cx="15" cy="75" fill="#05445e" transform="matrix(0.3753980977875387,0,0,0.3753980977875387,9.36902853318692,46.8451426659346)"></circle><circle r="5" cx="15" cy="85" fill="#05445e" transform="matrix(0.37210344425934616,0,0,0.37210344425934616,9.418448336109808,53.37120723795557)"></circle><circle r="5" cx="15" cy="95" fill="#05445e" transform="matrix(0.3639869534905097,0,0,0.3639869534905097,9.540195697642353,60.421239418401576)"></circle><circle r="5" cx="15" cy="105" fill="#05445e" transform="matrix(0.35084815286291476,0,0,0.35084815286291476,9.737277707056279,68.16094394939395)"></circle><circle r="5" cx="15" cy="115" fill="#05445e" transform="matrix(0.33300936837377215,0,0,0.33300936837377215,10.004859474393417,76.7039226370162)"></circle><circle r="5" cx="15" cy="125" fill="#05445e" transform="matrix(0.31126393337359165,0,0,0.31126393337359165,10.331040999396127,86.09200832830103)"></circle><circle r="5" cx="15" cy="135" fill="#05445e" transform="matrix(0.28678559686747357,0,0,0.28678559686747357,10.698216046987897,96.28394442289107)"></circle><circle r="5" cx="15" cy="145" fill="#05445e" transform="matrix(0.261014618808907,0,0,0.261014618808907,11.084780717866396,107.15288027270849)"></circle><circle r="5" cx="15" cy="155" fill="#05445e" transform="matrix(0.2355334128241002,0,0,0.2355334128241002,11.466998807638497,118.49232101226447)"></circle><circle r="5" cx="15" cy="165" fill="#05445e" transform="matrix(0.21194212605735424,0,0,0.21194212605735424,11.820868109139687,130.02954920053656)"></circle><circle r="5" cx="15" cy="175" fill="#05445e" transform="matrix(0.191742231324136,0,0,0.191742231324136,12.12386653013796,141.44510951827618)"></circle><circle r="5" cx="15" cy="185" fill="#05445e" transform="matrix(0.17623404849829885,0,0,0.17623404849829885,12.356489272525517,152.39670102781471)"></circle><circle r="5" cx="15" cy="195" fill="#05445e" transform="matrix(0.16643211004335373,0,0,0.16643211004335373,12.503518349349694,162.54573854154603)"></circle><circle r="5" cx="25" cy="5" fill="#05445e" transform="matrix(0.31481954343291446,0,0,0.31481954343291446,17.129511414177138,3.4259022828354277)"></circle><circle r="5" cx="25" cy="15" fill="#05445e" transform="matrix(0.31866896122612115,0,0,0.31866896122612115,17.03327596934697,10.219965581608182)"></circle><circle r="5" cx="25" cy="25" fill="#05445e" transform="matrix(0.32407035440824805,0,0,0.32407035440824805,16.898241139793797,16.898241139793797)"></circle><circle r="5" cx="25" cy="35" fill="#05445e" transform="matrix(0.33065195534126257,0,0,0.33065195534126257,16.733701116468435,23.42718156305581)"></circle><circle r="5" cx="25" cy="45" fill="#05445e" transform="matrix(0.33794088899310304,0,0,0.33794088899310304,16.551477775172422,29.792659995310363)"></circle><circle r="5" cx="25" cy="55" fill="#05445e" transform="matrix(0.34525673582555394,0,0,0.34525673582555394,16.368581604361154,36.01087952959453)"></circle><circle r="5" cx="25" cy="65" fill="#05445e" transform="matrix(0.35143538544869257,0,0,0.35143538544869257,16.214115363782685,42.15669994583499)"></circle><circle r="5" cx="25" cy="75" fill="#05445e" transform="matrix(0.3551182929816579,0,0,0.3551182929816579,16.12204267545855,48.366128026375655)"></circle><circle r="5" cx="25" cy="85" fill="#05445e" transform="matrix(0.35510116819956516,0,0,0.35510116819956516,16.12247079501087,54.81640070303696)"></circle><circle r="5" cx="25" cy="95" fill="#05445e" transform="matrix(0.3505503349846295,0,0,0.3505503349846295,16.236241625384263,61.6977181764602)"></circle><circle r="5" cx="25" cy="105" fill="#05445e" transform="matrix(0.34111241227792577,0,0,0.34111241227792577,16.472189693051856,69.1831967108178)"></circle><circle r="5" cx="25" cy="115" fill="#05445e" transform="matrix(0.3269417567576446,0,0,0.3269417567576446,16.826456081058886,77.40169797287086)"></circle><circle r="5" cx="25" cy="125" fill="#05445e" transform="matrix(0.30866699438717266,0,0,0.30866699438717266,17.283325140320684,86.41662570160341)"></circle><circle r="5" cx="25" cy="135" fill="#05445e" transform="matrix(0.2873150111374438,0,0,0.2873150111374438,17.817124721563907,96.21247349644509)"></circle><circle r="5" cx="25" cy="145" fill="#05445e" transform="matrix(0.2642079725927823,0,0,0.2642079725927823,18.394800685180442,106.68984397404657)"></circle><circle r="5" cx="25" cy="155" fill="#05445e" transform="matrix(0.2408462977978876,0,0,0.2408462977978876,18.97884255505281,117.66882384132742)"></circle><circle r="5" cx="25" cy="165" fill="#05445e" transform="matrix(0.2187880245956917,0,0,0.2187880245956917,19.530299385107707,128.89997594171086)"></circle><circle r="5" cx="25" cy="175" fill="#05445e" transform="matrix(0.1995326718415571,0,0,0.1995326718415571,20.011683203961073,140.08178242772752)"></circle><circle r="5" cx="25" cy="185" fill="#05445e" transform="matrix(0.18441552825867302,0,0,0.18441552825867302,20.389611793533174,150.8831272721455)"></circle><circle r="5" cx="25" cy="195" fill="#05445e" transform="matrix(0.17451627832255046,0,0,0.17451627832255046,20.63709304193624,160.96932572710267)"></circle><circle r="5" cx="35" cy="5" fill="#05445e" transform="matrix(0.2864736704176205,0,0,0.2864736704176205,24.97342153538328,3.5676316479118975)"></circle><circle r="5" cx="35" cy="15" fill="#05445e" transform="matrix(0.2912168717897139,0,0,0.2912168717897139,24.80740948736001,10.631746923154292)"></circle><circle r="5" cx="35" cy="25" fill="#05445e" transform="matrix(0.29771263886466737,0,0,0.29771263886466737,24.580057639736644,17.557184028383315)"></circle><circle r="5" cx="35" cy="35" fill="#05445e" transform="matrix(0.3054469774727321,0,0,0.3054469774727321,24.309355788454376,24.309355788454376)"></circle><circle r="5" cx="35" cy="45" fill="#05445e" transform="matrix(0.31385099716222653,0,0,0.31385099716222653,24.01521509932207,30.876705127699807)"></circle><circle r="5" cx="35" cy="55" fill="#05445e" transform="matrix(0.3223299699914295,0,0,0.3223299699914295,23.71845105029997,37.271851650471376)"></circle><circle r="5" cx="35" cy="65" fill="#05445e" transform="matrix(0.32998857994334485,0,0,0.32998857994334485,23.45039970198293,43.55074230368258)"></circle><circle r="5" cx="35" cy="75" fill="#05445e" transform="matrix(0.3356132357512558,0,0,0.3356132357512558,23.253536748706047,49.82900731865581)"></circle><circle r="5" cx="35" cy="85" fill="#05445e" transform="matrix(0.3380213429479991,0,0,0.3380213429479991,23.16925299682003,56.26818584942008)"></circle><circle r="5" cx="35" cy="95" fill="#05445e" transform="matrix(0.3363129549762172,0,0,0.3363129549762172,23.2290465758324,63.05026927725936)"></circle><circle r="5" cx="35" cy="105" fill="#05445e" transform="matrix(0.3300111280543746,0,0,0.3300111280543746,23.44961051809689,70.34883155429067)"></circle><circle r="5" cx="35" cy="115" fill="#05445e" transform="matrix(0.31911557174605387,0,0,0.31911557174605387,23.830954988888116,78.30170924920381)"></circle><circle r="5" cx="35" cy="125" fill="#05445e" transform="matrix(0.30409105673710574,0,0,0.30409105673710574,24.3568130142013,86.98861790786178)"></circle><circle r="5" cx="35" cy="135" fill="#05445e" transform="matrix(0.28580906712594634,0,0,0.28580906712594634,24.99668265059188,96.41577593799724)"></circle><circle r="5" cx="35" cy="145" fill="#05445e" transform="matrix(0.2654583665766571,0,0,0.2654583665766571,25.708957169817,106.50853684638471)"></circle><circle r="5" cx="35" cy="155" fill="#05445e" transform="matrix(0.2444374859725701,0,0,0.2444374859725701,26.44468799096005,117.11218967425164)"></circle><circle r="5" cx="35" cy="165" fill="#05445e" transform="matrix(0.22423963473969358,0,0,0.22423963473969358,27.151612784110725,128.00046026795056)"></circle><circle r="5" cx="35" cy="175" fill="#05445e" transform="matrix(0.20633818878466562,0,0,0.20633818878466562,27.778163392536705,138.89081696268352)"></circle><circle r="5" cx="35" cy="185" fill="#05445e" transform="matrix(0.19207871501090573,0,0,0.19207871501090573,28.2772449746183,149.46543772298244)"></circle><circle r="5" cx="35" cy="195" fill="#05445e" transform="matrix(0.18258145563927425,0,0,0.18258145563927425,28.6096490526254,159.39661615034152)"></circle><circle r="5" cx="45" cy="5" fill="#05445e" transform="matrix(0.2643950941646072,0,0,0.2643950941646072,33.10222076259268,3.678024529176964)"></circle><circle r="5" cx="45" cy="15" fill="#05445e" transform="matrix(0.2697025612324494,0,0,0.2697025612324494,32.86338474453978,10.954461581513259)"></circle><circle r="5" cx="45" cy="25" fill="#05445e" transform="matrix(0.27683118576975524,0,0,0.27683118576975524,32.54259664036101,18.07922035575612)"></circle><circle r="5" cx="45" cy="35" fill="#05445e" transform="matrix(0.285157917532617,0,0,0.285157917532617,32.167893711032235,25.019472886358407)"></circle><circle r="5" cx="45" cy="45" fill="#05445e" transform="matrix(0.29405237906693316,0,0,0.29405237906693316,31.767642941988008,31.767642941988008)"></circle><circle r="5" cx="45" cy="55" fill="#05445e" transform="matrix(0.30292093823861593,0,0,0.30292093823861593,31.368557779262282,38.33934839687612)"></circle><circle r="5" cx="45" cy="65" fill="#05445e" transform="matrix(0.3111236250369929,0,0,0.3111236250369929,30.99943687333532,44.77696437259546)"></circle><circle r="5" cx="45" cy="75" fill="#05445e" transform="matrix(0.317706969046338,0,0,0.317706969046338,30.70318639291479,51.17197732152465)"></circle><circle r="5" cx="45" cy="85" fill="#05445e" transform="matrix(0.3215976538756322,0,0,0.3215976538756322,30.52810557559655,57.664199420571265)"></circle><circle r="5" cx="45" cy="95" fill="#05445e" transform="matrix(0.32189078703822527,0,0,0.32189078703822527,30.51491458327986,64.4203752313686)"></circle><circle r="5" cx="45" cy="105" fill="#05445e" transform="matrix(0.31802554780001513,0,0,0.31802554780001513,30.688850348999317,71.6073174809984)"></circle><circle r="5" cx="45" cy="115" fill="#05445e" transform="matrix(0.30986914827462414,0,0,0.30986914827462414,31.055888327641913,79.36504794841822)"></circle><circle r="5" cx="45" cy="125" fill="#05445e" transform="matrix(0.29773072099180303,0,0,0.29773072099180303,31.602117555368864,87.78365987602461)"></circle><circle r="5" cx="45" cy="135" fill="#05445e" transform="matrix(0.2823237546056034,0,0,0.2823237546056034,32.29543104274785,96.88629312824355)"></circle><circle r="5" cx="45" cy="145" fill="#05445e" transform="matrix(0.2646928640928177,0,0,0.2646928640928177,33.0888211158232,106.61953470654143)"></circle><circle r="5" cx="45" cy="155" fill="#05445e" transform="matrix(0.2461180027198075,0,0,0.2461180027198075,33.924689877608664,116.85170957842985)"></circle><circle r="5" cx="45" cy="165" fill="#05445e" transform="matrix(0.228006700227104,0,0,0.228006700227104,34.739698489780324,127.37889446252784)"></circle><circle r="5" cx="45" cy="175" fill="#05445e" transform="matrix(0.21178254509609604,0,0,0.21178254509609604,35.469785470675674,137.9380546081832)"></circle><circle r="5" cx="45" cy="185" fill="#05445e" transform="matrix(0.19877591842069364,0,0,0.19877591842069364,36.055083671068786,148.22645509217168)"></circle><circle r="5" cx="45" cy="195" fill="#05445e" transform="matrix(0.1901209328090885,0,0,0.1901209328090885,36.444558023591014,157.92641810222773)"></circle><circle r="5" cx="55" cy="5" fill="#05445e" transform="matrix(0.2495411369243496,0,0,0.2495411369243496,41.27523746916077,3.752294315378252)"></circle><circle r="5" cx="55" cy="15" fill="#05445e" transform="matrix(0.25485379560161675,0,0,0.25485379560161675,40.98304124191108,11.177193065975748)"></circle><circle r="5" cx="55" cy="25" fill="#05445e" transform="matrix(0.2620423417721678,0,0,0.2620423417721678,40.58767120253077,18.448941455695806)"></circle><circle r="5" cx="55" cy="35" fill="#05445e" transform="matrix(0.2703935799434851,0,0,0.2703935799434851,40.12835310310832,25.53622470197802)"></circle><circle r="5" cx="55" cy="45" fill="#05445e" transform="matrix(0.2791970989426052,0,0,0.2791970989426052,39.644159558156716,32.43613054758276)"></circle><circle r="5" cx="55" cy="55" fill="#05445e" transform="matrix(0.2878263048769493,0,0,0.2878263048769493,39.169553231767786,39.169553231767786)"></circle><circle r="5" cx="55" cy="65" fill="#05445e" transform="matrix(0.29575327650322314,0,0,0.29575327650322314,38.733569792322726,45.7760370272905)"></circle><circle r="5" cx="55" cy="75" fill="#05445e" transform="matrix(0.30235009813631186,0,0,0.30235009813631186,38.370744602502846,52.32374263977661)"></circle><circle r="5" cx="55" cy="85" fill="#05445e" transform="matrix(0.3067575896536747,0,0,0.3067575896536747,38.12833256904789,58.92560487943765)"></circle><circle r="5" cx="55" cy="95" fill="#05445e" transform="matrix(0.3081425833687861,0,0,0.3081425833687861,38.052157914716766,65.72645457996532)"></circle><circle r="5" cx="55" cy="105" fill="#05445e" transform="matrix(0.3059134920131611,0,0,0.3059134920131611,38.17475793927614,72.87908333861809)"></circle><circle r="5" cx="55" cy="115" fill="#05445e" transform="matrix(0.2998387480158211,0,0,0.2998387480158211,38.50886885912984,80.51854397818057)"></circle><circle r="5" cx="55" cy="125" fill="#05445e" transform="matrix(0.2900898320085267,0,0,0.2900898320085267,39.04505923953103,88.73877099893416)"></circle><circle r="5" cx="55" cy="135" fill="#05445e" transform="matrix(0.2772276639449732,0,0,0.2772276639449732,39.75247848302647,97.57426536742861)"></circle><circle r="5" cx="55" cy="145" fill="#05445e" transform="matrix(0.26214827754569914,0,0,0.26214827754569914,40.58184473498655,106.98849975587362)"></circle><circle r="5" cx="55" cy="155" fill="#05445e" transform="matrix(0.24600100234766878,0,0,0.24600100234766878,41.469944870878216,116.86984463611134)"></circle><circle r="5" cx="55" cy="165" fill="#05445e" transform="matrix(0.2300898374483531,0,0,0.2300898374483531,42.34505894034058,127.03517682102174)"></circle><circle r="5" cx="55" cy="175" fill="#05445e" transform="matrix(0.2157663170886522,0,0,0.2157663170886522,43.13285256012413,137.24089450948586)"></circle><circle r="5" cx="55" cy="185" fill="#05445e" transform="matrix(0.2043199405171744,0,0,0.2043199405171744,43.76240327155541,147.20081100432273)"></circle><circle r="5" cx="55" cy="195" fill="#05445e" transform="matrix(0.19687016712021252,0,0,0.19687016712021252,44.17214080838831,156.61031741155855)"></circle><circle r="5" cx="65" cy="5" fill="#05445e" transform="matrix(0.24284672699098986,0,0,0.24284672699098986,49.21496274558566,3.785766365045051)"></circle><circle r="5" cx="65" cy="15" fill="#05445e" transform="matrix(0.2474394032855871,0,0,0.2474394032855871,48.91643878643684,11.288408950716192)"></circle><circle r="5" cx="65" cy="25" fill="#05445e" transform="matrix(0.25394808543357367,0,0,0.25394808543357367,48.49337444681771,18.651297864160657)"></circle><circle r="5" cx="65" cy="35" fill="#05445e" transform="matrix(0.26164206335934737,0,0,0.26164206335934737,47.99326588164242,25.84252778242284)"></circle><circle r="5" cx="65" cy="45" fill="#05445e" transform="matrix(0.2697739668592084,0,0,0.2697739668592084,47.46469215415145,32.86017149133562)"></circle><circle r="5" cx="65" cy="55" fill="#05445e" transform="matrix(0.27765061490429865,0,0,0.27765061490429865,46.95271003122059,39.72921618026358)"></circle><circle r="5" cx="65" cy="65" fill="#05445e" transform="matrix(0.28470748266868967,0,0,0.28470748266868967,46.49401362653517,46.49401362653517)"></circle><circle r="5" cx="65" cy="75" fill="#05445e" transform="matrix(0.29051673755480867,0,0,0.29051673755480867,46.116412058937435,53.21124468338935)"></circle><circle r="5" cx="65" cy="85" fill="#05445e" transform="matrix(0.29453526638306626,0,0,0.29453526638306626,45.855207685100694,59.96450235743937)"></circle><circle r="5" cx="65" cy="95" fill="#05445e" transform="matrix(0.29609715167165085,0,0,0.29609715167165085,45.75368514134269,66.87077059119318)"></circle><circle r="5" cx="65" cy="105" fill="#05445e" transform="matrix(0.2946497243038847,0,0,0.2946497243038847,45.84776792024749,74.06177894809211)"></circle><circle r="5" cx="65" cy="115" fill="#05445e" transform="matrix(0.28991072111412586,0,0,0.28991072111412586,46.15580312758182,81.66026707187552)"></circle><circle r="5" cx="65" cy="125" fill="#05445e" transform="matrix(0.2819441804989719,0,0,0.2819441804989719,46.673628267566826,89.7569774376285)"></circle><circle r="5" cx="65" cy="135" fill="#05445e" transform="matrix(0.27117401852402034,0,0,0.27117401852402034,47.373688795938676,98.39150749925724)"></circle><circle r="5" cx="65" cy="145" fill="#05445e" transform="matrix(0.2583513579595906,0,0,0.2583513579595906,48.207161732626616,107.53905309585937)"></circle><circle r="5" cx="65" cy="155" fill="#05445e" transform="matrix(0.24448896888561894,0,0,0.24448896888561894,49.10821702243477,117.10420982272906)"></circle><circle r="5" cx="65" cy="165" fill="#05445e" transform="matrix(0.2307736219563932,0,0,0.2307736219563932,49.99971457283444,126.92235237719512)"></circle><circle r="5" cx="65" cy="175" fill="#05445e" transform="matrix(0.21846475410990762,0,0,0.21846475410990762,50.799790982856,136.76866803076615)"></circle><circle r="5" cx="65" cy="185" fill="#05445e" transform="matrix(0.20878560144438396,0,0,0.20878560144438396,51.42893590611504,146.37466373278897)"></circle><circle r="5" cx="65" cy="195" fill="#05445e" transform="matrix(0.20281086516592564,0,0,0.20281086516592564,51.81729376421483,155.4518812926445)"></circle><circle r="5" cx="75" cy="5" fill="#05445e" transform="matrix(0.24494889399278907,0,0,0.24494889399278907,56.62883295054082,3.7752555300360546)"></circle><circle r="5" cx="75" cy="15" fill="#05445e" transform="matrix(0.24807713080711813,0,0,0.24807713080711813,56.39421518946614,11.278843037893228)"></circle><circle r="5" cx="75" cy="25" fill="#05445e" transform="matrix(0.2531295167302701,0,0,0.2531295167302701,56.015286245229746,18.671762081743246)"></circle><circle r="5" cx="75" cy="35" fill="#05445e" transform="matrix(0.2594138224372497,0,0,0.2594138224372497,55.54396331720628,25.92051621469626)"></circle><circle r="5" cx="75" cy="45" fill="#05445e" transform="matrix(0.2662046253740559,0,0,0.2662046253740559,55.0346530969458,33.020791858167485)"></circle><circle r="5" cx="75" cy="55" fill="#05445e" transform="matrix(0.2727982725615927,0,0,0.2727982725615927,54.54012955788055,39.9960950091124)"></circle><circle r="5" cx="75" cy="65" fill="#05445e" transform="matrix(0.2785731622620352,0,0,0.2785731622620352,54.10701283034736,46.89274445296771)"></circle><circle r="5" cx="75" cy="75" fill="#05445e" transform="matrix(0.2830606712665019,0,0,0.2830606712665019,53.77044965501236,53.77044965501236)"></circle><circle r="5" cx="75" cy="85" fill="#05445e" transform="matrix(0.28595046992115114,0,0,0.28595046992115114,53.55371475591366,60.694210056702154)"></circle><circle r="5" cx="75" cy="95" fill="#05445e" transform="matrix(0.2868531829616485,0,0,0.2868531829616485,53.48601127787636,67.7489476186434)"></circle><circle r="5" cx="75" cy="105" fill="#05445e" transform="matrix(0.285344540460923,0,0,0.285344540460923,53.59915946543077,75.03882325160308)"></circle><circle r="5" cx="75" cy="115" fill="#05445e" transform="matrix(0.281156897320619,0,0,0.281156897320619,53.91323270095357,82.66695680812882)"></circle><circle r="5" cx="75" cy="125" fill="#05445e" transform="matrix(0.27429179462115344,0,0,0.27429179462115344,54.42811540341349,90.71352567235581)"></circle><circle r="5" cx="75" cy="135" fill="#05445e" transform="matrix(0.2650640153161469,0,0,0.2650640153161469,55.12019885128899,99.21635793232016)"></circle><circle r="5" cx="75" cy="145" fill="#05445e" transform="matrix(0.254093375786699,0,0,0.254093375786699,55.942996815997574,108.15646051092864)"></circle><circle r="5" cx="75" cy="155" fill="#05445e" transform="matrix(0.24225776361737117,0,0,0.24225776361737117,56.830667728697165,117.45004663930746)"></circle><circle r="5" cx="75" cy="165" fill="#05445e" transform="matrix(0.23061835704579317,0,0,0.23061835704579317,57.70362322156551,126.94797108744413)"></circle><circle r="5" cx="75" cy="175" fill="#05445e" transform="matrix(0.22032554287151887,0,0,0.22032554287151887,58.475584284636085,136.4430299974842)"></circle><circle r="5" cx="75" cy="185" fill="#05445e" transform="matrix(0.21251178718711314,0,0,0.21251178718711314,59.06161596096651,145.68531937038406)"></circle><circle r="5" cx="75" cy="195" fill="#05445e" transform="matrix(0.20817560711546618,0,0,0.20817560711546618,59.38682946634004,154.40575661248408)"></circle><circle r="5" cx="85" cy="5" fill="#05445e" transform="matrix(0.2559765569353848,0,0,0.2559765569353848,63.24199266049229,3.720117215323076)"></circle><circle r="5" cx="85" cy="15" fill="#05445e" transform="matrix(0.2569837515817228,0,0,0.2569837515817228,63.15638111555356,11.145243726274158)"></circle><circle r="5" cx="85" cy="25" fill="#05445e" transform="matrix(0.25988204416374916,0,0,0.25988204416374916,62.91002624608132,18.502948895906272)"></circle><circle r="5" cx="85" cy="35" fill="#05445e" transform="matrix(0.26405776278108517,0,0,0.26405776278108517,62.55509016360776,25.757978302662018)"></circle><circle r="5" cx="85" cy="45" fill="#05445e" transform="matrix(0.26885025572962795,0,0,0.26885025572962795,62.14772826298162,32.90173849216674)"></circle><circle r="5" cx="85" cy="55" fill="#05445e" transform="matrix(0.27359343809140435,0,0,0.27359343809140435,61.74455776223063,39.952360904972764)"></circle><circle r="5" cx="85" cy="65" fill="#05445e" transform="matrix(0.27766279408422473,0,0,0.27766279408422473,61.3986625028409,46.95191838452539)"></circle><circle r="5" cx="85" cy="75" fill="#05445e" transform="matrix(0.28053303145418074,0,0,0.28053303145418074,61.15469232639464,53.960022640936444)"></circle><circle r="5" cx="85" cy="85" fill="#05445e" transform="matrix(0.28185115604715544,0,0,0.28185115604715544,61.04265173599179,61.04265173599179)"></circle><circle r="5" cx="85" cy="95" fill="#05445e" transform="matrix(0.28144903901885127,0,0,0.28144903901885127,61.07683168339764,68.26234129320913)"></circle><circle r="5" cx="85" cy="105" fill="#05445e" transform="matrix(0.2791381368096333,0,0,0.2791381368096333,61.27325837118117,75.69049563498851)"></circle><circle r="5" cx="85" cy="115" fill="#05445e" transform="matrix(0.2747509013335687,0,0,0.2747509013335687,61.64617338664666,83.40364634663959)"></circle><circle r="5" cx="85" cy="125" fill="#05445e" transform="matrix(0.2682886334050324,0,0,0.2682886334050324,62.195466160572245,91.46392082437094)"></circle><circle r="5" cx="85" cy="135" fill="#05445e" transform="matrix(0.2599993850846585,0,0,0.2599993850846585,62.90005226780403,99.9000830135711)"></circle><circle r="5" cx="85" cy="145" fill="#05445e" transform="matrix(0.2503970867034728,0,0,0.2503970867034728,63.716247630204805,108.69242242799643)"></circle><circle r="5" cx="85" cy="155" fill="#05445e" transform="matrix(0.2402355780091316,0,0,0.2402355780091316,64.57997586922382,117.7634854085846)"></circle><circle r="5" cx="85" cy="165" fill="#05445e" transform="matrix(0.23044863060783813,0,0,0.23044863060783813,65.41186639833376,126.97597594970671)"></circle><circle r="5" cx="85" cy="175" fill="#05445e" transform="matrix(0.22206461284881135,0,0,0.22206461284881135,66.12450790785104,136.13869275145802)"></circle><circle r="5" cx="85" cy="185" fill="#05445e" transform="matrix(0.2161021685151309,0,0,0.2161021685151309,66.63131567621387,145.0210988247008)"></circle><circle r="5" cx="85" cy="195" fill="#05445e" transform="matrix(0.21345115714539467,0,0,0.21345115714539467,66.85665164264145,153.37702435664804)"></circle><circle r="5" cx="95" cy="5" fill="#05445e" transform="matrix(0.2754454772413716,0,0,0.2754454772413716,68.8326796620697,3.622772613793142)"></circle><circle r="5" cx="95" cy="15" fill="#05445e" transform="matrix(0.2738344949685017,0,0,0.2738344949685017,68.98572297799234,10.892482575472474)"></circle><circle r="5" cx="95" cy="25" fill="#05445e" transform="matrix(0.2740382641878605,0,0,0.2740382641878605,68.96636490215326,18.149043395303487)"></circle><circle r="5" cx="95" cy="35" fill="#05445e" transform="matrix(0.27554830809607445,0,0,0.27554830809607445,68.82291073087293,25.355809216637397)"></circle><circle r="5" cx="95" cy="45" fill="#05445e" transform="matrix(0.27779795018044784,0,0,0.27779795018044784,68.60919473285746,32.49909224187985)"></circle><circle r="5" cx="95" cy="55" fill="#05445e" transform="matrix(0.2801926883864703,0,0,0.2801926883864703,68.38169460328533,39.589402138744134)"></circle><circle r="5" cx="95" cy="65" fill="#05445e" transform="matrix(0.28214614512920644,0,0,0.28214614512920644,68.19611621272539,46.660500566601584)"></circle><circle r="5" cx="95" cy="75" fill="#05445e" transform="matrix(0.2831262435869338,0,0,0.2831262435869338,68.10300685924129,53.765531730979966)"></circle><circle r="5" cx="95" cy="85" fill="#05445e" transform="matrix(0.28271620412403353,0,0,0.28271620412403353,68.1419606082168,60.96912264945715)"></circle><circle r="5" cx="95" cy="95" fill="#05445e" transform="matrix(0.28069454429123314,0,0,0.28069454429123314,68.33401829233286,68.33401829233286)"></circle><circle r="5" cx="95" cy="105" fill="#05445e" transform="matrix(0.2770629717428457,0,0,0.2770629717428457,68.67901768442965,75.9083879670012)"></circle><circle r="5" cx="95" cy="115" fill="#05445e" transform="matrix(0.27185775794852113,0,0,0.27185775794852113,69.1735129948905,83.73635783592007)"></circle><circle r="5" cx="95" cy="125" fill="#05445e" transform="matrix(0.2651621819766321,0,0,0.2651621819766321,69.80959271221995,91.85472725292098)"></circle><circle r="5" cx="95" cy="135" fill="#05445e" transform="matrix(0.25721678915925755,0,0,0.25721678915925755,70.56440502987053,100.27573346350023)"></circle><circle r="5" cx="95" cy="145" fill="#05445e" transform="matrix(0.2484687990012169,0,0,0.2484687990012169,71.39546409488439,108.97202414482355)"></circle><circle r="5" cx="95" cy="155" fill="#05445e" transform="matrix(0.23956959091930013,0,0,0.23956959091930013,72.24088886266648,117.86671340750848)"></circle><circle r="5" cx="95" cy="165" fill="#05445e" transform="matrix(0.23133152406732374,0,0,0.23133152406732374,73.02350521360424,126.83029852889157)"></circle><circle r="5" cx="95" cy="175" fill="#05445e" transform="matrix(0.22465289411554296,0,0,0.22465289411554296,73.65797505902341,135.68574352977998)"></circle><circle r="5" cx="95" cy="185" fill="#05445e" transform="matrix(0.2204175327094944,0,0,0.2204175327094944,74.06033439259804,144.22275644874352)"></circle><circle r="5" cx="95" cy="195" fill="#05445e" transform="matrix(0.21937341443354574,0,0,0.21937341443354574,74.15952562881316,152.2221841854586)"></circle><circle r="5" cx="105" cy="5" fill="#05445e" transform="matrix(0.30224393475859834,0,0,0.30224393475859834,73.26438685034717,3.4887803262070083)"></circle><circle r="5" cx="105" cy="15" fill="#05445e" transform="matrix(0.2977190060290553,0,0,0.2977190060290553,73.73950436694919,10.53421490956417)"></circle><circle r="5" cx="105" cy="25" fill="#05445e" transform="matrix(0.2948931572128643,0,0,0.2948931572128643,74.03621849264925,17.627671069678392)"></circle><circle r="5" cx="105" cy="35" fill="#05445e" transform="matrix(0.2933785658794047,0,0,0.2933785658794047,74.19525058266251,24.731750194220837)"></circle><circle r="5" cx="105" cy="45" fill="#05445e" transform="matrix(0.2927203599819176,0,0,0.2927203599819176,74.26436220189865,31.82758380081371)"></circle><circle r="5" cx="105" cy="55" fill="#05445e" transform="matrix(0.2924178369011219,0,0,0.2924178369011219,74.2961271253822,38.91701897043829)"></circle><circle r="5" cx="105" cy="65" fill="#05445e" transform="matrix(0.2919513541633538,0,0,0.2919513541633538,74.34510781284786,46.023161979382)"></circle><circle r="5" cx="105" cy="75" fill="#05445e" transform="matrix(0.2908189964269186,0,0,0.2908189964269186,74.46400537517354,53.18857526798111)"></circle><circle r="5" cx="105" cy="85" fill="#05445e" transform="matrix(0.2885870493785819,0,0,0.2885870493785819,74.6983598152489,60.47010080282054)"></circle><circle r="5" cx="105" cy="95" fill="#05445e" transform="matrix(0.28495823723035674,0,0,0.28495823723035674,75.07938509081254,67.92896746311611)"></circle><circle r="5" cx="105" cy="105" fill="#05445e" transform="matrix(0.27986083149931396,0,0,0.27986083149931396,75.61461269257204,75.61461269257204)"></circle><circle r="5" cx="105" cy="115" fill="#05445e" transform="matrix(0.2734836671746602,0,0,0.2734836671746602,76.28421494666068,83.54937827491408)"></circle><circle r="5" cx="105" cy="125" fill="#05445e" transform="matrix(0.26608998045906385,0,0,0.26608998045906385,77.0605520517983,91.73875244261703)"></circle><circle r="5" cx="105" cy="135" fill="#05445e" transform="matrix(0.25799121903223293,0,0,0.25799121903223293,77.91092200161555,100.17118543064856)"></circle><circle r="5" cx="105" cy="145" fill="#05445e" transform="matrix(0.2496228258115113,0,0,0.2496228258115113,78.78960328979132,108.80469025733086)"></circle><circle r="5" cx="105" cy="155" fill="#05445e" transform="matrix(0.24156771297057433,0,0,0.24156771297057433,79.63539013808969,117.55700448956098)"></circle><circle r="5" cx="105" cy="165" fill="#05445e" transform="matrix(0.2345319385620208,0,0,0.2345319385620208,80.37414645098782,126.30223013726658)"></circle><circle r="5" cx="105" cy="175" fill="#05445e" transform="matrix(0.22928155769445224,0,0,0.22928155769445224,80.92543644208251,134.87572740347085)"></circle><circle r="5" cx="105" cy="185" fill="#05445e" transform="matrix(0.22654730571076867,0,0,0.22654730571076867,81.2125329003693,143.0887484435078)"></circle><circle r="5" cx="105" cy="195" fill="#05445e" transform="matrix(0.22690161255420802,0,0,0.22690161255420802,81.17533068180816,150.75418555192942)"></circle><circle r="5" cx="115" cy="5" fill="#05445e" transform="matrix(0.33469448656359735,0,0,0.33469448656359735,76.5101340451863,3.3265275671820134)"></circle><circle r="5" cx="115" cy="15" fill="#05445e" transform="matrix(0.3271787020574339,0,0,0.3271787020574339,77.3744492633951,10.092319469138491)"></circle><circle r="5" cx="115" cy="25" fill="#05445e" transform="matrix(0.3212159551254748,0,0,0.3212159551254748,78.06016516057039,16.96960112186313)"></circle><circle r="5" cx="115" cy="35" fill="#05445e" transform="matrix(0.3165454001408538,0,0,0.3165454001408538,78.59727898380181,23.920910995070116)"></circle><circle r="5" cx="115" cy="45" fill="#05445e" transform="matrix(0.31283244102875396,0,0,0.31283244102875396,79.0242692816933,30.922540153706073)"></circle><circle r="5" cx="115" cy="55" fill="#05445e" transform="matrix(0.3096825859913304,0,0,0.3096825859913304,79.386502610997,37.96745777047683)"></circle><circle r="5" cx="115" cy="65" fill="#05445e" transform="matrix(0.306661038044181,0,0,0.306661038044181,79.73398062491918,45.067032527128234)"></circle><circle r="5" cx="115" cy="75" fill="#05445e" transform="matrix(0.30332158011337984,0,0,0.30332158011337984,80.11801828696132,52.250881491496514)"></circle><circle r="5" cx="115" cy="85" fill="#05445e" transform="matrix(0.2992482221299229,0,0,0.2992482221299229,80.58645445505886,59.56390111895655)"></circle><circle r="5" cx="115" cy="95" fill="#05445e" transform="matrix(0.29411298624625326,0,0,0.29411298624625326,81.17700658168087,67.05926630660593)"></circle><circle r="5" cx="115" cy="105" fill="#05445e" transform="matrix(0.28775311498736644,0,0,0.28775311498736644,81.90839177645286,74.78592292632652)"></circle><circle r="5" cx="115" cy="115" fill="#05445e" transform="matrix(0.28026719498860414,0,0,0.28026719498860414,82.76927257631053,82.76927257631053)"></circle><circle r="5" cx="115" cy="125" fill="#05445e" transform="matrix(0.27202449409888985,0,0,0.27202449409888985,83.71718317862766,90.99693823763877)"></circle><circle r="5" cx="115" cy="135" fill="#05445e" transform="matrix(0.2634899580444293,0,0,0.2634899580444293,84.69865482489062,99.42885566400204)"></circle><circle r="5" cx="115" cy="145" fill="#05445e" transform="matrix(0.2551600157977656,0,0,0.2551600157977656,85.65659818325696,108.001797709324)"></circle><circle r="5" cx="115" cy="155" fill="#05445e" transform="matrix(0.24759722871663448,0,0,0.24759722871663448,86.52631869758704,116.62242954892166)"></circle><circle r="5" cx="115" cy="165" fill="#05445e" transform="matrix(0.24142694863742886,0,0,0.24142694863742886,87.23590090669568,125.16455347482423)"></circle><circle r="5" cx="115" cy="175" fill="#05445e" transform="matrix(0.2372877309762344,0,0,0.2372877309762344,87.71191093773305,133.47464707915898)"></circle><circle r="5" cx="115" cy="185" fill="#05445e" transform="matrix(0.2357423221614281,0,0,0.2357423221614281,87.88963295143577,141.3876704001358)"></circle><circle r="5" cx="115" cy="195" fill="#05445e" transform="matrix(0.23715519851779632,0,0,0.23715519851779632,87.72715217045342,148.75473628902972)"></circle><circle r="5" cx="125" cy="5" fill="#05445e" transform="matrix(0.3706768153079688,0,0,0.3706768153079688,78.6653980865039,3.146615923460156)"></circle><circle r="5" cx="125" cy="15" fill="#05445e" transform="matrix(0.3603100388654923,0,0,0.3603100388654923,79.96124514181346,9.595349417017616)"></circle><circle r="5" cx="125" cy="25" fill="#05445e" transform="matrix(0.35133268218539604,0,0,0.35133268218539604,81.0834147268255,16.2166829453651)"></circle><circle r="5" cx="125" cy="35" fill="#05445e" transform="matrix(0.34360988452963426,0,0,0.34360988452963426,82.04876443379572,22.9736540414628)"></circle><circle r="5" cx="125" cy="45" fill="#05445e" transform="matrix(0.3369282303380103,0,0,0.3369282303380103,82.88397120774871,29.838229634789535)"></circle><circle r="5" cx="125" cy="55" fill="#05445e" transform="matrix(0.3310038039463446,0,0,0.3310038039463446,83.62452450670693,36.79479078295105)"></circle><circle r="5" cx="125" cy="65" fill="#05445e" transform="matrix(0.32549600511942667,0,0,0.32549600511942667,84.31299936007167,43.84275966723727)"></circle><circle r="5" cx="125" cy="75" fill="#05445e" transform="matrix(0.3200301383030943,0,0,0.3200301383030943,84.99623271211321,50.99773962726793)"></circle><circle r="5" cx="125" cy="85" fill="#05445e" transform="matrix(0.3142316798272043,0,0,0.3142316798272043,85.72104002159946,58.29030721468764)"></circle><circle r="5" cx="125" cy="95" fill="#05445e" transform="matrix(0.30777501861868306,0,0,0.30777501861868306,86.52812267266461,65.76137323122511)"></circle><circle r="5" cx="125" cy="105" fill="#05445e" transform="matrix(0.3004493573112593,0,0,0.3004493573112593,87.44383033609259,73.45281748231777)"></circle><circle r="5" cx="125" cy="115" fill="#05445e" transform="matrix(0.2922443519596427,0,0,0.2922443519596427,88.46945600504466,81.39189952464109)"></circle><circle r="5" cx="125" cy="125" fill="#05445e" transform="matrix(0.28344149935140844,0,0,0.28344149935140844,89.56981258107395,89.56981258107395)"></circle><circle r="5" cx="125" cy="135" fill="#05445e" transform="matrix(0.27455290121784653,0,0,0.27455290121784653,90.68088734776919,97.93535833559072)"></circle><circle r="5" cx="125" cy="145" fill="#05445e" transform="matrix(0.2661763100914138,0,0,0.2661763100914138,91.72796123857327,106.404435036745)"></circle><circle r="5" cx="125" cy="155" fill="#05445e" transform="matrix(0.25891641874316135,0,0,0.25891641874316135,92.63544765710483,114.86795509480999)"></circle><circle r="5" cx="125" cy="165" fill="#05445e" transform="matrix(0.25335538259741025,0,0,0.25335538259741025,93.33057717532373,123.19636187142731)"></circle><circle r="5" cx="125" cy="175" fill="#05445e" transform="matrix(0.250016986987979,0,0,0.250016986987979,93.74787662650263,131.24702727710368)"></circle><circle r="5" cx="125" cy="185" fill="#05445e" transform="matrix(0.2492852442347429,0,0,0.2492852442347429,93.83934447065714,138.88222981657256)"></circle><circle r="5" cx="125" cy="195" fill="#05445e" transform="matrix(0.25131090143009827,0,0,0.25131090143009827,93.58613732123771,145.99437422113084)"></circle><circle r="5" cx="135" cy="5" fill="#05445e" transform="matrix(0.4077961645332858,0,0,0.4077961645332858,79.94751778800642,2.961019177333571)"></circle><circle r="5" cx="135" cy="15" fill="#05445e" transform="matrix(0.394917690485761,0,0,0.394917690485761,81.68611178442227,9.076234642713585)"></circle><circle r="5" cx="135" cy="25" fill="#05445e" transform="matrix(0.38326286183660097,0,0,0.38326286183660097,83.25951365205887,15.418428454084976)"></circle><circle r="5" cx="135" cy="35" fill="#05445e" transform="matrix(0.37281609992144027,0,0,0.37281609992144027,84.66982651060556,21.95143650274959)"></circle><circle r="5" cx="135" cy="45" fill="#05445e" transform="matrix(0.36348007158599294,0,0,0.36348007158599294,85.93019033589096,28.64339677863032)"></circle><circle r="5" cx="135" cy="55" fill="#05445e" transform="matrix(0.3550792817161465,0,0,0.3550792817161465,87.06429696832022,35.47063950561194)"></circle><circle r="5" cx="135" cy="65" fill="#05445e" transform="matrix(0.34736940501211555,0,0,0.34736940501211555,88.10513032336439,42.42098867421249)"></circle><circle r="5" cx="135" cy="75" fill="#05445e" transform="matrix(0.3400548240663209,0,0,0.3400548240663209,89.09259875104667,49.49588819502593)"></circle><circle r="5" cx="135" cy="85" fill="#05445e" transform="matrix(0.33281671477168245,0,0,0.33281671477168245,90.06974350582287,56.710579244406986)"></circle><circle r="5" cx="135" cy="95" fill="#05445e" transform="matrix(0.32535389405402315,0,0,0.32535389405402315,91.07722430270687,64.09138006486779)"></circle><circle r="5" cx="135" cy="105" fill="#05445e" transform="matrix(0.31743851888929986,0,0,0.31743851888929986,92.14579994994452,71.66895551662351)"></circle><circle r="5" cx="135" cy="115" fill="#05445e" transform="matrix(0.3089885995333894,0,0,0.3089885995333894,93.28653906299243,79.46631105366022)"></circle><circle r="5" cx="135" cy="125" fill="#05445e" transform="matrix(0.3001587857674951,0,0,0.3001587857674951,94.47856392138816,87.4801517790631)"></circle><circle r="5" cx="135" cy="135" fill="#05445e" transform="matrix(0.2913919024689959,0,0,0.2913919024689959,95.66209316668557,95.66209316668557)"></circle><circle r="5" cx="135" cy="145" fill="#05445e" transform="matrix(0.2832718046487013,0,0,0.2832718046487013,96.75830637242532,103.92558832593832)"></circle><circle r="5" cx="135" cy="155" fill="#05445e" transform="matrix(0.2764093591068635,0,0,0.2764093591068635,97.68473652057344,112.15654933843615)"></circle><circle r="5" cx="135" cy="165" fill="#05445e" transform="matrix(0.27137296127563226,0,0,0.27137296127563226,98.36465022778964,120.22346138952068)"></circle><circle r="5" cx="135" cy="175" fill="#05445e" transform="matrix(0.26859305627683683,0,0,0.26859305627683683,98.73993740262702,127.99621515155356)"></circle><circle r="5" cx="135" cy="185" fill="#05445e" transform="matrix(0.2682785786400234,0,0,0.2682785786400234,98.78239188359683,135.36846295159566)"></circle><circle r="5" cx="135" cy="195" fill="#05445e" transform="matrix(0.2704470492743767,0,0,0.2704470492743767,98.48964834795915,142.26282539149656)"></circle><circle r="5" cx="145" cy="5" fill="#05445e" transform="matrix(0.4435811928141832,0,0,0.4435811928141832,80.68072704194344,2.782094035929084)"></circle><circle r="5" cx="145" cy="15" fill="#05445e" transform="matrix(0.4287009803880369,0,0,0.4287009803880369,82.83835784373466,8.569485294179447)"></circle><circle r="5" cx="145" cy="25" fill="#05445e" transform="matrix(0.4148932164056958,0,0,0.4148932164056958,84.84048362117412,14.627669589857604)"></circle><circle r="5" cx="145" cy="35" fill="#05445e" transform="matrix(0.40225057495377203,0,0,0.40225057495377203,86.67366663170306,20.92122987661798)"></circle><circle r="5" cx="145" cy="45" fill="#05445e" transform="matrix(0.3907820423424735,0,0,0.3907820423424735,88.33660386034134,27.414808094588693)"></circle><circle r="5" cx="145" cy="55" fill="#05445e" transform="matrix(0.38041315877304926,0,0,0.38041315877304926,89.84009197790786,34.07727626748229)"></circle><circle r="5" cx="145" cy="65" fill="#05445e" transform="matrix(0.37099192366443046,0,0,0.37099192366443046,91.20617106865758,40.885524961812024)"></circle><circle r="5" cx="145" cy="75" fill="#05445e" transform="matrix(0.3623022858540618,0,0,0.3623022858540618,92.46616855116103,47.82732856094536)"></circle><circle r="5" cx="145" cy="85" fill="#05445e" transform="matrix(0.35408699649452846,0,0,0.35408699649452846,93.65738550829337,54.90260529796508)"></circle><circle r="5" cx="145" cy="95" fill="#05445e" transform="matrix(0.34608145907419335,0,0,0.34608145907419335,94.81818843424196,62.12226138795163)"></circle><circle r="5" cx="145" cy="105" fill="#05445e" transform="matrix(0.3380600675966655,0,0,0.3380600675966655,95.98129019848349,69.50369290235012)"></circle><circle r="5" cx="145" cy="115" fill="#05445e" transform="matrix(0.3298963805605316,0,0,0.3298963805605316,97.16502481872291,77.06191623553886)"></circle><circle r="5" cx="145" cy="125" fill="#05445e" transform="matrix(0.32163833498738986,0,0,0.32163833498738986,98.36244142682847,84.79520812657627)"></circle><circle r="5" cx="145" cy="135" fill="#05445e" transform="matrix(0.31359172610716657,0,0,0.31359172610716657,99.52919971446084,92.66511697553251)"></circle><circle r="5" cx="145" cy="145" fill="#05445e" transform="matrix(0.30627135713482967,0,0,0.30627135713482967,100.59065321544969,100.59065321544969)"></circle><circle r="5" cx="145" cy="155" fill="#05445e" transform="matrix(0.30021315562658696,0,0,0.30021315562658696,101.4690924341449,108.46696087787902)"></circle><circle r="5" cx="145" cy="165" fill="#05445e" transform="matrix(0.29587885611011755,0,0,0.29587885611011755,102.09756586403296,116.17998874183061)"></circle><circle r="5" cx="145" cy="175" fill="#05445e" transform="matrix(0.29356249368771253,0,0,0.29356249368771253,102.43343841528169,123.6265636046503)"></circle><circle r="5" cx="145" cy="185" fill="#05445e" transform="matrix(0.2933652937717824,0,0,0.2933652937717824,102.46203240309156,130.72742065222025)"></circle><circle r="5" cx="145" cy="195" fill="#05445e" transform="matrix(0.29529041959334296,0,0,0.29529041959334296,102.18288915896528,137.4183681792981)"></circle><circle r="5" cx="155" cy="5" fill="#05445e" transform="matrix(0.47569425677973065,0,0,0.47569425677973065,81.26739019914174,2.6215287161013467)"></circle><circle r="5" cx="155" cy="15" fill="#05445e" transform="matrix(0.45945608049634307,0,0,0.45945608049634307,83.78430752306683,8.108158792554853)"></circle><circle r="5" cx="155" cy="25" fill="#05445e" transform="matrix(0.4441703648501559,0,0,0.4441703648501559,86.15359344822583,13.895740878746103)"></circle><circle r="5" cx="155" cy="35" fill="#05445e" transform="matrix(0.4300238461880537,0,0,0.4300238461880537,88.34630384085168,19.94916538341812)"></circle><circle r="5" cx="155" cy="45" fill="#05445e" transform="matrix(0.41711851383603943,0,0,0.41711851383603943,90.3466303554139,26.229666877378225)"></circle><circle r="5" cx="155" cy="55" fill="#05445e" transform="matrix(0.40546938573619684,0,0,0.40546938573619684,92.15224521088949,32.699183784509174)"></circle><circle r="5" cx="155" cy="65" fill="#05445e" transform="matrix(0.39500781070367524,0,0,0.39500781070367524,93.77378934093034,39.32449230426111)"></circle><circle r="5" cx="155" cy="75" fill="#05445e" transform="matrix(0.3855916726740174,0,0,0.3855916726740174,95.2332907355273,46.0806245494487)"></circle><circle r="5" cx="155" cy="85" fill="#05445e" transform="matrix(0.377023711557356,0,0,0.377023711557356,96.56132470860982,52.95298451762474)"></circle><circle r="5" cx="155" cy="95" fill="#05445e" transform="matrix(0.3690790145622069,0,0,0.3690790145622069,97.79275274285794,59.937493616590345)"></circle><circle r="5" cx="155" cy="105" fill="#05445e" transform="matrix(0.36154257109778914,0,0,0.36154257109778914,98.96090147984268,67.03803003473215)"></circle><circle r="5" cx="155" cy="115" fill="#05445e" transform="matrix(0.35425762361000435,0,0,0.35425762361000435,100.09006834044933,74.26037328484949)"></circle><circle r="5" cx="155" cy="125" fill="#05445e" transform="matrix(0.34718538595241233,0,0,0.34718538595241233,101.18626517737609,81.60182675594845)"></circle><circle r="5" cx="155" cy="135" fill="#05445e" transform="matrix(0.3404763279306287,0,0,0.3404763279306287,102.22616917075254,89.03569572936513)"></circle><circle r="5" cx="155" cy="145" fill="#05445e" transform="matrix(0.3345016007789448,0,0,0.3345016007789448,103.15225187926356,96.497267887053)"></circle><circle r="5" cx="155" cy="155" fill="#05445e" transform="matrix(0.32967584693086305,0,0,0.32967584693086305,103.90024372571622,103.90024372571622)"></circle><circle r="5" cx="155" cy="165" fill="#05445e" transform="matrix(0.3262959989542223,0,0,0.3262959989542223,104.42412016209555,111.16116017255332)"></circle><circle r="5" cx="155" cy="175" fill="#05445e" transform="matrix(0.3245002272840942,0,0,0.3245002272840942,104.70246477096539,118.21246022528351)"></circle><circle r="5" cx="155" cy="185" fill="#05445e" transform="matrix(0.3243475692963226,0,0,0.3243475692963226,104.72612675907,124.99569968018032)"></circle><circle r="5" cx="155" cy="195" fill="#05445e" transform="matrix(0.3258430332401464,0,0,0.3258430332401464,104.49432984777731,131.46060851817145)"></circle><circle r="5" cx="165" cy="5" fill="#05445e" transform="matrix(0.5021361550099801,0,0,0.5021361550099801,82.14753442335328,2.4893192249500995)"></circle><circle r="5" cx="165" cy="15" fill="#05445e" transform="matrix(0.4852755162396869,0,0,0.4852755162396869,84.92953982045167,7.720867256404697)"></circle><circle r="5" cx="165" cy="25" fill="#05445e" transform="matrix(0.46929354566600096,0,0,0.46929354566600096,87.56656496510985,13.267661358349976)"></circle><circle r="5" cx="165" cy="35" fill="#05445e" transform="matrix(0.45445463652384827,0,0,0.45445463652384827,90.01498497356503,19.09408772166531)"></circle><circle r="5" cx="165" cy="45" fill="#05445e" transform="matrix(0.440937796031211,0,0,0.440937796031211,92.24526365485018,25.157799178595504)"></circle><circle r="5" cx="165" cy="55" fill="#05445e" transform="matrix(0.4288326133345161,0,0,0.4288326133345161,94.24261879980484,31.414206266601614)"></circle><circle r="5" cx="165" cy="65" fill="#05445e" transform="matrix(0.4181405481403871,0,0,0.4181405481403871,96.00680955683613,37.820864370874844)"></circle><circle r="5" cx="165" cy="75" fill="#05445e" transform="matrix(0.4087823695594078,0,0,0.4087823695594078,97.55090902269772,44.34132228304442)"></circle><circle r="5" cx="165" cy="85" fill="#05445e" transform="matrix(0.4006123965733431,0,0,0.4006123965733431,98.8989545653984,50.947946291265836)"></circle><circle r="5" cx="165" cy="95" fill="#05445e" transform="matrix(0.3934400134230588,0,0,0.3934400134230588,100.0823977851953,57.62319872480941)"></circle><circle r="5" cx="165" cy="105" fill="#05445e" transform="matrix(0.3870587551001779,0,0,0.3870587551001779,101.13530540847066,64.35883071448131)"></circle><circle r="5" cx="165" cy="115" fill="#05445e" transform="matrix(0.38128308001131,0,0,0.38128308001131,102.08829179813385,71.15244579869935)"></circle><circle r="5" cx="165" cy="125" fill="#05445e" transform="matrix(0.375992768769484,0,0,0.375992768769484,102.96119315303514,78.0009039038145)"></circle><circle r="5" cx="165" cy="135" fill="#05445e" transform="matrix(0.3711847099532136,0,0,0.3711847099532136,103.75452285771975,84.89006415631616)"></circle><circle r="5" cx="165" cy="145" fill="#05445e" transform="matrix(0.36702142199530685,0,0,0.36702142199530685,104.44146537077437,91.78189381068051)"></circle><circle r="5" cx="165" cy="155" fill="#05445e" transform="matrix(0.363730026744702,0,0,0.363730026744702,104.98454558712416,98.62184585457119)"></circle><circle r="5" cx="165" cy="165" fill="#05445e" transform="matrix(0.3614384716499123,0,0,0.3614384716499123,105.36265217776447,105.36265217776447)"></circle><circle r="5" cx="165" cy="175" fill="#05445e" transform="matrix(0.3602211790343456,0,0,0.3602211790343456,105.56350545933299,111.96129366898953)"></circle><circle r="5" cx="165" cy="185" fill="#05445e" transform="matrix(0.3601177033299941,0,0,0.3601177033299941,105.58057895055097,118.37822488395109)"></circle><circle r="5" cx="165" cy="195" fill="#05445e" transform="matrix(0.36113140932317844,0,0,0.36113140932317844,105.41331746167555,124.5793751819802)"></circle><circle r="5" cx="175" cy="5" fill="#05445e" transform="matrix(0.5214262305077052,0,0,0.5214262305077052,83.7504096611516,2.392868847461474)"></circle><circle r="5" cx="175" cy="15" fill="#05445e" transform="matrix(0.5047253815731827,0,0,0.5047253815731827,86.67305822469302,7.429119276402259)"></circle><circle r="5" cx="175" cy="25" fill="#05445e" transform="matrix(0.48888725776761377,0,0,0.48888725776761377,89.44472989066759,12.777818555809656)"></circle><circle r="5" cx="175" cy="35" fill="#05445e" transform="matrix(0.4742360161936018,0,0,0.4742360161936018,92.00869716611969,18.401739433223938)"></circle><circle r="5" cx="175" cy="45" fill="#05445e" transform="matrix(0.4610096865010848,0,0,0.4610096865010848,94.32330486231015,24.254564107451184)"></circle><circle r="5" cx="175" cy="55" fill="#05445e" transform="matrix(0.4493547629868,0,0,0.4493547629868,96.36291647731,30.285488035726)"></circle><circle r="5" cx="175" cy="65" fill="#05445e" transform="matrix(0.4393258351117949,0,0,0.4393258351117949,98.1179788554359,36.44382071773333)"></circle><circle r="5" cx="175" cy="75" fill="#05445e" transform="matrix(0.4308905401179608,0,0,0.4308905401179608,99.59415547935686,42.68320949115294)"></circle><circle r="5" cx="175" cy="85" fill="#05445e" transform="matrix(0.4239399259499529,0,0,0.4239399259499529,100.81051295875824,48.96510629425401)"></circle><circle r="5" cx="175" cy="95" fill="#05445e" transform="matrix(0.4183041172142525,0,0,0.4183041172142525,101.79677948750582,55.26110886464601)"></circle><circle r="5" cx="175" cy="105" fill="#05445e" transform="matrix(0.41377298143251845,0,0,0.41377298143251845,102.58972824930927,61.553836949585566)"></circle><circle r="5" cx="175" cy="115" fill="#05445e" transform="matrix(0.4101212973717651,0,0,0.4101212973717651,103.22877295994111,67.836050802247)"></circle><circle r="5" cx="175" cy="125" fill="#05445e" transform="matrix(0.4071377317592933,0,0,0.4071377317592933,103.75089694212367,74.10778353008834)"></circle><circle r="5" cx="175" cy="135" fill="#05445e" transform="matrix(0.40465673521569434,0,0,0.40465673521569434,104.18507133725349,80.37134074588127)"></circle><circle r="5" cx="175" cy="145" fill="#05445e" transform="matrix(0.40259408330922597,0,0,0.40259408330922597,104.54603542088546,86.62385792016224)"></circle><circle r="5" cx="175" cy="155" fill="#05445e" transform="matrix(0.40097271586847616,0,0,0.40097271586847616,104.82977472301667,92.8492290403862)"></circle><circle r="5" cx="175" cy="165" fill="#05445e" transform="matrix(0.39984408620113354,0,0,0.39984408620113354,105.02728491480163,99.02572577681296)"></circle><circle r="5" cx="175" cy="175" fill="#05445e" transform="matrix(0.3992446034500252,0,0,0.3992446034500252,105.13219439624558,105.13219439624558)"></circle><circle r="5" cx="175" cy="185" fill="#05445e" transform="matrix(0.39919364625244547,0,0,0.39919364625244547,105.14111190582204,111.1491754432976)"></circle><circle r="5" cx="175" cy="195" fill="#05445e" transform="matrix(0.39969286303384377,0,0,0.39969286303384377,105.05374896907735,117.05989170840047)"></circle><circle r="5" cx="185" cy="5" fill="#05445e" transform="matrix(0.5327374389048323,0,0,0.5327374389048323,86.44357380260602,2.3363128054758384)"></circle><circle r="5" cx="185" cy="15" fill="#05445e" transform="matrix(0.5169793773655788,0,0,0.5169793773655788,89.35881518736794,7.245309339516319)"></circle><circle r="5" cx="185" cy="25" fill="#05445e" transform="matrix(0.5021324216118798,0,0,0.5021324216118798,92.10550200180225,12.446689459703006)"></circle><circle r="5" cx="185" cy="35" fill="#05445e" transform="matrix(0.48856162012582954,0,0,0.48856162012582954,94.61610027672154,17.900343295595967)"></circle><circle r="5" cx="185" cy="45" fill="#05445e" transform="matrix(0.4765444510387411,0,0,0.4765444510387411,96.8392765578329,23.55549970325665)"></circle><circle r="5" cx="185" cy="55" fill="#05445e" transform="matrix(0.4662642437370795,0,0,0.4662642437370795,98.7411149086403,29.35546659446063)"></circle><circle r="5" cx="185" cy="65" fill="#05445e" transform="matrix(0.45780827284329395,0,0,0.45780827284329395,100.30546952399062,35.24246226518589)"></circle><circle r="5" cx="185" cy="75" fill="#05445e" transform="matrix(0.451170262407848,0,0,0.451170262407848,101.53350145454812,41.1622303194114)"></circle><circle r="5" cx="185" cy="85" fill="#05445e" transform="matrix(0.4462568253137344,0,0,0.4462568253137344,102.44248731695913,47.06816984833257)"></circle><circle r="5" cx="185" cy="95" fill="#05445e" transform="matrix(0.4428971500597428,0,0,0.4428971500597428,103.06402723894759,52.924770744324434)"></circle><circle r="5" cx="185" cy="105" fill="#05445e" transform="matrix(0.4408550342537366,0,0,0.4408550342537366,103.44181866305873,58.71022140335766)"></circle><circle r="5" cx="185" cy="115" fill="#05445e" transform="matrix(0.4398421513121763,0,0,0.4398421513121763,103.62920200724739,64.41815259909973)"></circle><circle r="5" cx="185" cy="125" fill="#05445e" transform="matrix(0.4395312252531748,0,0,0.4395312252531748,103.68672332816267,70.05859684335314)"></circle><circle r="5" cx="185" cy="135" fill="#05445e" transform="matrix(0.4395760552415954,0,0,0.4395760552415954,103.67842978030485,75.65723254238463)"></circle><circle r="5" cx="185" cy="145" fill="#05445e" transform="matrix(0.4397008010851333,0,0,0.4397008010851333,103.65535179925034,81.24338384265567)"></circle><circle r="5" cx="185" cy="155" fill="#05445e" transform="matrix(0.43980285850440093,0,0,0.43980285850440093,103.63647117668583,86.83055693181785)"></circle><circle r="5" cx="185" cy="165" fill="#05445e" transform="matrix(0.43987389716623415,0,0,0.43987389716623415,103.62332902424669,92.42080696757137)"></circle><circle r="5" cx="185" cy="175" fill="#05445e" transform="matrix(0.4399116290083296,0,0,0.4399116290083296,103.61634863345903,98.01546492354232)"></circle><circle r="5" cx="185" cy="185" fill="#05445e" transform="matrix(0.43991483625547256,0,0,0.43991483625547256,103.61575529273757,103.61575529273757)"></circle><circle r="5" cx="185" cy="195" fill="#05445e" transform="matrix(0.43988341531993613,0,0,0.43988341531993613,103.62156816581181,109.22273401261245)"></circle><circle r="5" cx="195" cy="5" fill="#05445e" transform="matrix(0.5359645427788833,0,0,0.5359645427788833,90.48691415811776,2.320177286105584)"></circle><circle r="5" cx="195" cy="15" fill="#05445e" transform="matrix(0.521887339765055,0,0,0.521887339765055,93.23196874581429,7.171689903524175)"></circle><circle r="5" cx="195" cy="25" fill="#05445e" transform="matrix(0.5088332160546539,0,0,0.5088332160546539,95.77752286934249,12.279169598633652)"></circle><circle r="5" cx="195" cy="35" fill="#05445e" transform="matrix(0.4971885486804805,0,0,0.4971885486804805,98.0482330073063,17.59840079618318)"></circle><circle r="5" cx="195" cy="45" fill="#05445e" transform="matrix(0.4872493171664776,0,0,0.4872493171664776,99.98638315253686,23.073780727508506)"></circle><circle r="5" cx="195" cy="55" fill="#05445e" transform="matrix(0.47921333349926765,0,0,0.47921333349926765,101.5533999676428,28.64326665754028)"></circle><circle r="5" cx="195" cy="65" fill="#05445e" transform="matrix(0.47317668721643424,0,0,0.47317668721643424,102.73054599279533,34.24351533093177)"></circle><circle r="5" cx="195" cy="75" fill="#05445e" transform="matrix(0.4691335976031717,0,0,0.4691335976031717,103.51894846738152,39.814980179762124)"></circle><circle r="5" cx="195" cy="85" fill="#05445e" transform="matrix(0.46697863479350976,0,0,0.46697863479350976,103.9391662152656,45.306816042551674)"></circle><circle r="5" cx="195" cy="95" fill="#05445e" transform="matrix(0.4665100413768969,0,0,0.4665100413768969,104.03054193150511,50.681546069194795)"></circle><circle r="5" cx="195" cy="105" fill="#05445e" transform="matrix(0.4674326559155034,0,0,0.4674326559155034,103.85063209647683,55.91957112887214)"></circle><circle r="5" cx="195" cy="115" fill="#05445e" transform="matrix(0.4693594038970339,0,0,0.4693594038970339,103.47491624007839,61.0236685518411)"></circle><circle r="5" cx="195" cy="125" fill="#05445e" transform="matrix(0.47183468397461614,0,0,0.47183468397461614,102.99223662494985,66.02066450317298)"></circle><circle r="5" cx="195" cy="135" fill="#05445e" transform="matrix(0.4744081944463206,0,0,0.4744081944463206,102.49040208296748,70.95489374974672)"></circle><circle r="5" cx="195" cy="145" fill="#05445e" transform="matrix(0.47671063279052883,0,0,0.47671063279052883,102.04142660584688,75.87695824537332)"></circle><circle r="5" cx="195" cy="155" fill="#05445e" transform="matrix(0.47853275817203816,0,0,0.47853275817203816,101.68611215645255,80.82742248333409)"></circle><circle r="5" cx="195" cy="165" fill="#05445e" transform="matrix(0.47980115122033384,0,0,0.47980115122033384,101.4387755120349,85.83281004864492)"></circle><circle r="5" cx="195" cy="175" fill="#05445e" transform="matrix(0.4804748756496015,0,0,0.4804748756496015,101.30739924832771,90.91689676131973)"></circle><circle r="5" cx="195" cy="185" fill="#05445e" transform="matrix(0.4805321436902721,0,0,0.4805321436902721,101.29623198039694,96.10155341729967)"></circle><circle r="5" cx="195" cy="195" fill="#05445e" transform="matrix(0.47997110198067955,0,0,0.47997110198067955,101.40563511376749,101.40563511376749)"></circle></svg>