<svg class="generator__canvas" viewBox="0 0 200 200" xmlns="http://www.w3.org/2000/svg" version="1.1" xmlns:xlink="http://www.w3.org/1999/xlink" xmlns:svgjs="http://svgjs.dev/svgjs"><circle r="5" cx="5" cy="5" fill="#d1f1f4" transform="matrix(0.2717732947173923,0,0,0.2717732947173923,3.6411335264130384,3.6411335264130384)"></circle><circle r="5" cx="5" cy="15" fill="#d1f1f4" transform="matrix(0.299854035879023,0,0,0.299854035879023,3.500729820604885,10.502189461814655)"></circle><circle r="5" cx="5" cy="25" fill="#d1f1f4" transform="matrix(0.3561438295701504,0,0,0.3561438295701504,3.219280852149248,16.09640426074624)"></circle><circle r="5" cx="5" cy="35" fill="#d1f1f4" transform="matrix(0.41978523670156387,0,0,0.41978523670156387,2.9010738164921808,20.307516715445267)"></circle><circle r="5" cx="5" cy="45" fill="#d1f1f4" transform="matrix(0.4685772935762937,0,0,0.4685772935762937,2.6571135321185317,23.914021789066783)"></circle><circle r="5" cx="5" cy="55" fill="#d1f1f4" transform="matrix(0.4919676220613559,0,0,0.4919676220613559,2.5401618896932203,27.941780786625426)"></circle><circle r="5" cx="5" cy="65" fill="#d1f1f4" transform="matrix(0.4919513572096645,0,0,0.4919513572096645,2.5402432139516775,33.02316178137181)"></circle><circle r="5" cx="5" cy="75" fill="#d1f1f4" transform="matrix(0.468523762503224,0,0,0.468523762503224,2.65738118748388,39.8607178122582)"></circle><circle r="5" cx="5" cy="85" fill="#d1f1f4" transform="matrix(0.42487356194595893,0,0,0.42487356194595893,2.8756321902702053,48.88574723459349)"></circle><circle r="5" cx="5" cy="95" fill="#d1f1f4" transform="matrix(0.3783131917683006,0,0,0.3783131917683006,3.108434041158497,59.06024678201145)"></circle><circle r="5" cx="5" cy="105" fill="#d1f1f4" transform="matrix(0.35314024253776904,0,0,0.35314024253776904,3.234298787311155,67.92027453353424)"></circle><circle r="5" cx="5" cy="115" fill="#d1f1f4" transform="matrix(0.36616377917930454,0,0,0.36616377917930454,3.1691811041034774,72.89116539437998)"></circle><circle r="5" cx="5" cy="125" fill="#d1f1f4" transform="matrix(0.41729122373770655,0,0,0.41729122373770655,2.913543881311467,72.83859703278668)"></circle><circle r="5" cx="5" cy="135" fill="#d1f1f4" transform="matrix(0.4942702466926776,0,0,0.4942702466926776,2.528648766536612,68.27351669648853)"></circle><circle r="5" cx="5" cy="145" fill="#d1f1f4" transform="matrix(0.5811522273255647,0,0,0.5811522273255647,2.0942388633721762,60.73292703779312)"></circle><circle r="5" cx="5" cy="155" fill="#d1f1f4" transform="matrix(0.6600847655511608,0,0,0.6600847655511608,1.6995761722441962,52.68686133957007)"></circle><circle r="5" cx="5" cy="165" fill="#d1f1f4" transform="matrix(0.7110930654000674,0,0,0.7110930654000674,1.4445346729996627,47.66964420898887)"></circle><circle r="5" cx="5" cy="175" fill="#d1f1f4" transform="matrix(0.715110109779076,0,0,0.715110109779076,1.4244494511046204,49.8557307886617)"></circle><circle r="5" cx="5" cy="185" fill="#d1f1f4" transform="matrix(0.6566483106114062,0,0,0.6566483106114062,1.7167584469429693,63.52006253688987)"></circle><circle r="5" cx="5" cy="195" fill="#d1f1f4" transform="matrix(0.5429621663459209,0,0,0.5429621663459209,2.2851891682703958,89.12237756254542)"></circle><circle r="5" cx="15" cy="5" fill="#d1f1f4" transform="matrix(0.2808893746511874,0,0,0.2808893746511874,10.786659380232189,3.595553126744063)"></circle><circle r="5" cx="15" cy="15" fill="#d1f1f4" transform="matrix(0.29527192499578925,0,0,0.29527192499578925,10.570921125063162,10.570921125063162)"></circle><circle r="5" cx="15" cy="25" fill="#d1f1f4" transform="matrix(0.3375046986367704,0,0,0.3375046986367704,9.937429520448443,16.56238253408074)"></circle><circle r="5" cx="15" cy="35" fill="#d1f1f4" transform="matrix(0.3942982779362885,0,0,0.3942982779362885,9.085525830955671,21.199560272229903)"></circle><circle r="5" cx="15" cy="45" fill="#d1f1f4" transform="matrix(0.44897360056255464,0,0,0.44897360056255464,8.26539599156168,24.79618797468504)"></circle><circle r="5" cx="15" cy="55" fill="#d1f1f4" transform="matrix(0.49057990841346855,0,0,0.49057990841346855,7.641301373797972,28.01810503725923)"></circle><circle r="5" cx="15" cy="65" fill="#d1f1f4" transform="matrix(0.5122167200252937,0,0,0.5122167200252937,7.3167491996205944,31.70591319835591)"></circle><circle r="5" cx="15" cy="75" fill="#d1f1f4" transform="matrix(0.5021928179716545,0,0,0.5021928179716545,7.467107730425183,37.33553865212591)"></circle><circle r="5" cx="15" cy="85" fill="#d1f1f4" transform="matrix(0.4567032985120659,0,0,0.4567032985120659,8.149450522319011,46.1802196264744)"></circle><circle r="5" cx="15" cy="95" fill="#d1f1f4" transform="matrix(0.3924058081628181,0,0,0.3924058081628181,9.113912877557729,57.72144822453228)"></circle><circle r="5" cx="15" cy="105" fill="#d1f1f4" transform="matrix(0.3391461329180927,0,0,0.3391461329180927,9.912808006228609,69.38965604360027)"></circle><circle r="5" cx="15" cy="115" fill="#d1f1f4" transform="matrix(0.3234045177999796,0,0,0.3234045177999796,10.148932233000306,77.80848045300235)"></circle><circle r="5" cx="15" cy="125" fill="#d1f1f4" transform="matrix(0.35443604770690706,0,0,0.35443604770690706,9.683459284396394,80.69549403663662)"></circle><circle r="5" cx="15" cy="135" fill="#d1f1f4" transform="matrix(0.4234419273903142,0,0,0.4234419273903142,8.648371089145286,77.83533980230757)"></circle><circle r="5" cx="15" cy="145" fill="#d1f1f4" transform="matrix(0.5153586096359963,0,0,0.5153586096359963,7.2696208554600545,70.27300160278052)"></circle><circle r="5" cx="15" cy="155" fill="#d1f1f4" transform="matrix(0.6088280633817902,0,0,0.6088280633817902,5.8675790492731466,60.631650175822514)"></circle><circle r="5" cx="15" cy="165" fill="#d1f1f4" transform="matrix(0.6790122239638199,0,0,0.6790122239638199,4.814816640542702,52.96298304596972)"></circle><circle r="5" cx="15" cy="175" fill="#d1f1f4" transform="matrix(0.7040967426650234,0,0,0.7040967426650234,4.438548860024648,51.7830700336209)"></circle><circle r="5" cx="15" cy="185" fill="#d1f1f4" transform="matrix(0.6656036481210308,0,0,0.6656036481210308,5.015945278184539,61.863325097609305)"></circle><circle r="5" cx="15" cy="195" fill="#d1f1f4" transform="matrix(0.5666480194885969,0,0,0.5666480194885969,6.500279707671046,84.5036361997236)"></circle><circle r="5" cx="25" cy="5" fill="#d1f1f4" transform="matrix(0.28065623960961905,0,0,0.28065623960961905,17.983594009759525,3.596718801951905)"></circle><circle r="5" cx="25" cy="15" fill="#d1f1f4" transform="matrix(0.2847357406768797,0,0,0.2847357406768797,17.88160648307801,10.728963889846804)"></circle><circle r="5" cx="25" cy="25" fill="#d1f1f4" transform="matrix(0.31892973933487756,0,0,0.31892973933487756,17.026756516628062,17.026756516628062)"></circle><circle r="5" cx="25" cy="35" fill="#d1f1f4" transform="matrix(0.37478078481689964,0,0,0.37478078481689964,15.63048037957751,21.882672531408513)"></circle><circle r="5" cx="25" cy="45" fill="#d1f1f4" transform="matrix(0.43971757872354955,0,0,0.43971757872354955,14.00706053191126,25.21270895744027)"></circle><circle r="5" cx="25" cy="55" fill="#d1f1f4" transform="matrix(0.5006379625352956,0,0,0.5006379625352956,12.48405093661761,27.464912060558742)"></circle><circle r="5" cx="25" cy="65" fill="#d1f1f4" transform="matrix(0.5413722275661932,0,0,0.5413722275661932,11.465694310845171,29.810805208197444)"></circle><circle r="5" cx="25" cy="75" fill="#d1f1f4" transform="matrix(0.541521647049996,0,0,0.541521647049996,11.461958823750102,34.385876471250306)"></circle><circle r="5" cx="25" cy="85" fill="#d1f1f4" transform="matrix(0.4910597892317292,0,0,0.4910597892317292,12.72350526920677,43.259917915303014)"></circle><circle r="5" cx="25" cy="95" fill="#d1f1f4" transform="matrix(0.4054857224514995,0,0,0.4054857224514995,14.862856938712513,56.47885636710755)"></circle><circle r="5" cx="25" cy="105" fill="#d1f1f4" transform="matrix(0.3194659998805807,0,0,0.3194659998805807,17.013350002985483,71.45607001253902)"></circle><circle r="5" cx="25" cy="115" fill="#d1f1f4" transform="matrix(0.26904277312522334,0,0,0.26904277312522334,18.273930671869415,84.06008109059931)"></circle><circle r="5" cx="25" cy="125" fill="#d1f1f4" transform="matrix(0.2740289073789115,0,0,0.2740289073789115,18.149277315527215,90.74638657763606)"></circle><circle r="5" cx="25" cy="135" fill="#d1f1f4" transform="matrix(0.3306258712143725,0,0,0.3306258712143725,16.73435321964069,90.36550738605972)"></circle><circle r="5" cx="25" cy="145" fill="#d1f1f4" transform="matrix(0.4209324462651106,0,0,0.4209324462651106,14.476688843372235,83.96479529155897)"></circle><circle r="5" cx="25" cy="155" fill="#d1f1f4" transform="matrix(0.5218056991201645,0,0,0.5218056991201645,11.954857521995887,74.1201166363745)"></circle><circle r="5" cx="25" cy="165" fill="#d1f1f4" transform="matrix(0.6068115335711038,0,0,0.6068115335711038,9.829711660722404,64.87609696076787)"></circle><circle r="5" cx="25" cy="175" fill="#d1f1f4" transform="matrix(0.6528665769118427,0,0,0.6528665769118427,8.678335577203931,60.74834904042753)"></circle><circle r="5" cx="25" cy="185" fill="#d1f1f4" transform="matrix(0.6405435861846966,0,0,0.6405435861846966,8.986410345382584,66.49943655583112)"></circle><circle r="5" cx="25" cy="195" fill="#d1f1f4" transform="matrix(0.5677236407721233,0,0,0.5677236407721233,10.806908980696917,84.29389004943594)"></circle><circle r="5" cx="35" cy="5" fill="#d1f1f4" transform="matrix(0.27090708537174146,0,0,0.27090708537174146,25.51825201198905,3.6454645731412927)"></circle><circle r="5" cx="35" cy="15" fill="#d1f1f4" transform="matrix(0.26673409997428255,0,0,0.26673409997428255,25.66430650090011,10.998988500385762)"></circle><circle r="5" cx="35" cy="25" fill="#d1f1f4" transform="matrix(0.29746018675775127,0,0,0.29746018675775127,24.588893463478705,17.563495331056217)"></circle><circle r="5" cx="35" cy="35" fill="#d1f1f4" transform="matrix(0.35835842614643343,0,0,0.35835842614643343,22.45745508487483,22.45745508487483)"></circle><circle r="5" cx="35" cy="45" fill="#d1f1f4" transform="matrix(0.43737687992530894,0,0,0.43737687992530894,19.691809202614188,25.3180404033611)"></circle><circle r="5" cx="35" cy="55" fill="#d1f1f4" transform="matrix(0.5161285435636956,0,0,0.5161285435636956,16.935500975270653,26.61293010399674)"></circle><circle r="5" cx="35" cy="65" fill="#d1f1f4" transform="matrix(0.5723261920235929,0,0,0.5723261920235929,14.968583279174247,27.798797518466458)"></circle><circle r="5" cx="35" cy="75" fill="#d1f1f4" transform="matrix(0.5808438268968896,0,0,0.5808438268968896,14.670466058608863,31.436712982733276)"></circle><circle r="5" cx="35" cy="85" fill="#d1f1f4" transform="matrix(0.5266752361913214,0,0,0.5266752361913214,16.566366733303752,40.23260492373768)"></circle><circle r="5" cx="35" cy="95" fill="#d1f1f4" transform="matrix(0.4233990929874127,0,0,0.4233990929874127,20.181031745440556,54.777086166195794)"></circle><circle r="5" cx="35" cy="105" fill="#d1f1f4" transform="matrix(0.30866018123067207,0,0,0.30866018123067207,24.196893656926477,72.59068097077943)"></circle><circle r="5" cx="35" cy="115" fill="#d1f1f4" transform="matrix(0.22582922001612885,0,0,0.22582922001612885,27.09597729943549,89.02963969814519)"></circle><circle r="5" cx="35" cy="125" fill="#d1f1f4" transform="matrix(0.203201793476214,0,0,0.203201793476214,27.88793722833251,99.59977581547325)"></circle><circle r="5" cx="35" cy="135" fill="#d1f1f4" transform="matrix(0.24152503315354046,0,0,0.24152503315354046,26.546623839626086,102.39412052427204)"></circle><circle r="5" cx="35" cy="145" fill="#d1f1f4" transform="matrix(0.3217414655765142,0,0,0.3217414655765142,23.739048704822004,98.34748749140545)"></circle><circle r="5" cx="35" cy="155" fill="#d1f1f4" transform="matrix(0.4211237770427164,0,0,0.4211237770427164,20.260667803504923,89.72581455837896)"></circle><circle r="5" cx="35" cy="165" fill="#d1f1f4" transform="matrix(0.5135332068804102,0,0,0.5135332068804102,17.026337759185644,80.26702086473233)"></circle><circle r="5" cx="35" cy="175" fill="#d1f1f4" transform="matrix(0.5753439527642358,0,0,0.5753439527642358,14.862961653251748,74.31480826625874)"></circle><circle r="5" cx="35" cy="185" fill="#d1f1f4" transform="matrix(0.5867872069787535,0,0,0.5867872069787535,14.462447755743625,76.4443667089306)"></circle><circle r="5" cx="35" cy="195" fill="#d1f1f4" transform="matrix(0.5406529115208706,0,0,0.5406529115208706,16.07714809676953,89.57268225343023)"></circle><circle r="5" cx="45" cy="5" fill="#d1f1f4" transform="matrix(0.25521580938090976,0,0,0.25521580938090976,33.51528857785906,3.723920953095451)"></circle><circle r="5" cx="45" cy="15" fill="#d1f1f4" transform="matrix(0.24711892256492635,0,0,0.24711892256492635,33.87964848457831,11.293216161526104)"></circle><circle r="5" cx="45" cy="25" fill="#d1f1f4" transform="matrix(0.27721777464430053,0,0,0.27721777464430053,32.52520014100648,18.069555633892485)"></circle><circle r="5" cx="45" cy="35" fill="#d1f1f4" transform="matrix(0.3452737797069257,0,0,0.3452737797069257,29.462679913188346,22.9154177102576)"></circle><circle r="5" cx="45" cy="45" fill="#d1f1f4" transform="matrix(0.437267650049276,0,0,0.437267650049276,25.32295574778258,25.32295574778258)"></circle><circle r="5" cx="45" cy="55" fill="#d1f1f4" transform="matrix(0.5293233875247905,0,0,0.5293233875247905,21.18044756138443,25.887213686136523)"></circle><circle r="5" cx="45" cy="65" fill="#d1f1f4" transform="matrix(0.5966255726012781,0,0,0.5966255726012781,18.151849232942485,26.219337780916923)"></circle><circle r="5" cx="45" cy="75" fill="#d1f1f4" transform="matrix(0.6131164492456802,0,0,0.6131164492456802,17.40975978394439,29.016266306573982)"></circle><circle r="5" cx="45" cy="85" fill="#d1f1f4" transform="matrix(0.5605769425420689,0,0,0.5605769425420689,19.774037585606898,37.35095988392414)"></circle><circle r="5" cx="45" cy="95" fill="#d1f1f4" transform="matrix(0.44957676299709004,0,0,0.44957676299709004,24.76904566513095,52.29020751527645)"></circle><circle r="5" cx="45" cy="105" fill="#d1f1f4" transform="matrix(0.3176506585821333,0,0,0.3176506585821333,30.705720363804,71.646680848876)"></circle><circle r="5" cx="45" cy="115" fill="#d1f1f4" transform="matrix(0.2112531556290966,0,0,0.2112531556290966,35.493607996690656,90.70588710265389)"></circle><circle r="5" cx="45" cy="125" fill="#d1f1f4" transform="matrix(0.163639298286296,0,0,0.163639298286296,37.63623157711668,104.545087714213)"></circle><circle r="5" cx="45" cy="135" fill="#d1f1f4" transform="matrix(0.1802966070594918,0,0,0.1802966070594918,36.88665268232287,110.65995804696861)"></circle><circle r="5" cx="45" cy="145" fill="#d1f1f4" transform="matrix(0.24384534329688431,0,0,0.24384534329688431,34.0269595516402,109.64242522195178)"></circle><circle r="5" cx="45" cy="155" fill="#d1f1f4" transform="matrix(0.33314099224538996,0,0,0.33314099224538996,30.008655348957454,103.36314620196455)"></circle><circle r="5" cx="45" cy="165" fill="#d1f1f4" transform="matrix(0.42371956732641874,0,0,0.42371956732641874,25.932619470311156,95.08627139114091)"></circle><circle r="5" cx="45" cy="175" fill="#d1f1f4" transform="matrix(0.48983829390885214,0,0,0.48983829390885214,22.957276774101654,89.27829856595088)"></circle><circle r="5" cx="45" cy="185" fill="#d1f1f4" transform="matrix(0.5124373914699742,0,0,0.5124373914699742,21.94031738385116,90.19908257805477)"></circle><circle r="5" cx="45" cy="195" fill="#d1f1f4" transform="matrix(0.4845214062814396,0,0,0.4845214062814396,23.19653671733522,100.51832577511928)"></circle><circle r="5" cx="55" cy="5" fill="#d1f1f4" transform="matrix(0.2402319720455537,0,0,0.2402319720455537,41.787241537494545,3.7988401397722313)"></circle><circle r="5" cx="55" cy="15" fill="#d1f1f4" transform="matrix(0.23471843890587885,0,0,0.23471843890587885,42.09048586017666,11.479223416411816)"></circle><circle r="5" cx="55" cy="25" fill="#d1f1f4" transform="matrix(0.26699762119973647,0,0,0.26699762119973647,40.3151308340145,18.325059470006586)"></circle><circle r="5" cx="55" cy="35" fill="#d1f1f4" transform="matrix(0.33941425179252893,0,0,0.33941425179252893,36.332216151410904,23.12050118726149)"></circle><circle r="5" cx="55" cy="45" fill="#d1f1f4" transform="matrix(0.4372530611075189,0,0,0.4372530611075189,30.95108163908646,25.323612250161652)"></circle><circle r="5" cx="55" cy="55" fill="#d1f1f4" transform="matrix(0.5351567091382464,0,0,0.5351567091382464,25.566380997396447,25.566380997396447)"></circle><circle r="5" cx="55" cy="65" fill="#d1f1f4" transform="matrix(0.6075792822513325,0,0,0.6075792822513325,21.58313947617671,25.50734665366339)"></circle><circle r="5" cx="55" cy="75" fill="#d1f1f4" transform="matrix(0.6309927654261607,0,0,0.6309927654261607,20.29539790156116,27.675542593037946)"></circle><circle r="5" cx="55" cy="85" fill="#d1f1f4" transform="matrix(0.5866407709395303,0,0,0.5866407709395303,22.734757598325835,35.13553447013993)"></circle><circle r="5" cx="55" cy="95" fill="#d1f1f4" transform="matrix(0.4810143328566789,0,0,0.4810143328566789,28.544211692882662,49.3036383786155)"></circle><circle r="5" cx="55" cy="105" fill="#d1f1f4" transform="matrix(0.34747646983569075,0,0,0.34747646983569075,35.888794159037005,68.51497066725247)"></circle><circle r="5" cx="55" cy="115" fill="#d1f1f4" transform="matrix(0.23082835013763295,0,0,0.23082835013763295,42.30444074243019,88.45473973417221)"></circle><circle r="5" cx="55" cy="125" fill="#d1f1f4" transform="matrix(0.16601538248122327,0,0,0.16601538248122327,45.86915396353272,104.2480771898471)"></circle><circle r="5" cx="55" cy="135" fill="#d1f1f4" transform="matrix(0.16234260450539914,0,0,0.16234260450539914,46.071156752203045,113.08374839177111)"></circle><circle r="5" cx="55" cy="145" fill="#d1f1f4" transform="matrix(0.2060314427292955,0,0,0.2060314427292955,43.66827064988875,115.12544080425215)"></circle><circle r="5" cx="55" cy="155" fill="#d1f1f4" transform="matrix(0.2789709313447998,0,0,0.2789709313447998,39.65659877603601,111.75950564155603)"></circle><circle r="5" cx="55" cy="165" fill="#d1f1f4" transform="matrix(0.3572289762395064,0,0,0.3572289762395064,35.35240630682715,106.05721892048145)"></circle><circle r="5" cx="55" cy="175" fill="#d1f1f4" transform="matrix(0.41442786264885784,0,0,0.41442786264885784,32.20646755431282,102.47512403644988)"></circle><circle r="5" cx="55" cy="185" fill="#d1f1f4" transform="matrix(0.4340492107458882,0,0,0.4340492107458882,31.12729340897615,104.70089601201069)"></circle><circle r="5" cx="55" cy="195" fill="#d1f1f4" transform="matrix(0.4132709645571889,0,0,0.4132709645571889,32.27009694935461,114.41216191134816)"></circle><circle r="5" cx="65" cy="5" fill="#d1f1f4" transform="matrix(0.2347652823463352,0,0,0.2347652823463352,49.74025664748821,3.826173588268324)"></circle><circle r="5" cx="65" cy="15" fill="#d1f1f4" transform="matrix(0.23761765494006631,0,0,0.23761765494006631,49.554852428895686,11.435735175899005)"></circle><circle r="5" cx="65" cy="25" fill="#d1f1f4" transform="matrix(0.271990380044113,0,0,0.271990380044113,47.32062529713265,18.200240498897173)"></circle><circle r="5" cx="65" cy="35" fill="#d1f1f4" transform="matrix(0.34231747376500343,0,0,0.34231747376500343,42.74936420527477,23.01888841822488)"></circle><circle r="5" cx="65" cy="45" fill="#d1f1f4" transform="matrix(0.43726028847349335,0,0,0.43726028847349335,36.57808124922293,25.3232870186928)"></circle><circle r="5" cx="65" cy="55" fill="#d1f1f4" transform="matrix(0.532266499968062,0,0,0.532266499968062,30.402677502075974,25.725342501756593)"></circle><circle r="5" cx="65" cy="65" fill="#d1f1f4" transform="matrix(0.602570263888623,0,0,0.602570263888623,25.832932847239505,25.832932847239505)"></circle><circle r="5" cx="65" cy="75" fill="#d1f1f4" transform="matrix(0.6300966028325864,0,0,0.6300966028325864,24.043720815881883,27.742754787556024)"></circle><circle r="5" cx="65" cy="85" fill="#d1f1f4" transform="matrix(0.5998153730689519,0,0,0.5998153730689519,26.012000750518126,34.01569328913909)"></circle><circle r="5" cx="65" cy="95" fill="#d1f1f4" transform="matrix(0.5123765103768338,0,0,0.5123765103768338,31.6955268255058,46.32423151420078)"></circle><circle r="5" cx="65" cy="105" fill="#d1f1f4" transform="matrix(0.39283001516151195,0,0,0.39283001516151195,39.46604901450172,63.752848408041245)"></circle><circle r="5" cx="65" cy="115" fill="#d1f1f4" transform="matrix(0.28013026510590633,0,0,0.28013026510590633,46.791532768116085,82.78501951282078)"></circle><circle r="5" cx="65" cy="125" fill="#d1f1f4" transform="matrix(0.20768414399923263,0,0,0.20768414399923263,51.50053064004988,99.03948200009592)"></circle><circle r="5" cx="65" cy="135" fill="#d1f1f4" transform="matrix(0.18735408046140883,0,0,0.18735408046140883,52.82198477000843,109.70719913770981)"></circle><circle r="5" cx="65" cy="145" fill="#d1f1f4" transform="matrix(0.21066389110546319,0,0,0.21066389110546319,51.30684707814489,114.45373578970784)"></circle><circle r="5" cx="65" cy="155" fill="#d1f1f4" transform="matrix(0.2638217635593926,0,0,0.2638217635593926,47.85158536863948,114.10762664829414)"></circle><circle r="5" cx="65" cy="165" fill="#d1f1f4" transform="matrix(0.32355809465879526,0,0,0.32355809465879526,43.96872384717831,111.61291438129878)"></circle><circle r="5" cx="65" cy="175" fill="#d1f1f4" transform="matrix(0.3648106206700473,0,0,0.3648106206700473,41.28730965644692,111.15814138274172)"></circle><circle r="5" cx="65" cy="185" fill="#d1f1f4" transform="matrix(0.3735485722846482,0,0,0.3735485722846482,40.719342801497866,115.89351412734008)"></circle><circle r="5" cx="65" cy="195" fill="#d1f1f4" transform="matrix(0.351235887736766,0,0,0.351235887736766,42.16966729711021,126.50900189133063)"></circle><circle r="5" cx="75" cy="5" fill="#d1f1f4" transform="matrix(0.24509059803625238,0,0,0.24509059803625238,56.618205147281074,3.774547009818738)"></circle><circle r="5" cx="75" cy="15" fill="#d1f1f4" transform="matrix(0.2578489445752167,0,0,0.2578489445752167,55.66132915685875,11.13226583137175)"></circle><circle r="5" cx="75" cy="25" fill="#d1f1f4" transform="matrix(0.2914081740070019,0,0,0.2914081740070019,53.14438694947486,17.71479564982495)"></circle><circle r="5" cx="75" cy="35" fill="#d1f1f4" transform="matrix(0.35336953904249957,0,0,0.35336953904249957,48.49728457181253,22.632066133512517)"></circle><circle r="5" cx="75" cy="45" fill="#d1f1f4" transform="matrix(0.4372836661886993,0,0,0.4372836661886993,42.203725035847555,25.322235021508533)"></circle><circle r="5" cx="75" cy="55" fill="#d1f1f4" transform="matrix(0.5213239820153923,0,0,0.5213239820153923,35.90070134884557,26.327180989153423)"></circle><circle r="5" cx="75" cy="65" fill="#d1f1f4" transform="matrix(0.5848137145903256,0,0,0.5848137145903256,31.138971405725577,26.987108551628836)"></circle><circle r="5" cx="75" cy="75" fill="#d1f1f4" transform="matrix(0.6148271708390793,0,0,0.6148271708390793,28.88796218706905,28.88796218706905)"></circle><circle r="5" cx="75" cy="85" fill="#d1f1f4" transform="matrix(0.6010590447302029,0,0,0.6010590447302029,29.920571645234787,33.90998119793275)"></circle><circle r="5" cx="75" cy="95" fill="#d1f1f4" transform="matrix(0.5391029139628628,0,0,0.5391029139628628,34.56728145278529,43.78522317352803)"></circle><circle r="5" cx="75" cy="105" fill="#d1f1f4" transform="matrix(0.4439690894981411,0,0,0.4439690894981411,41.702318287639415,58.38324560269518)"></circle><circle r="5" cx="75" cy="115" fill="#d1f1f4" transform="matrix(0.34579651508153486,0,0,0.34579651508153486,49.06526136888489,75.23340076562349)"></circle><circle r="5" cx="75" cy="125" fill="#d1f1f4" transform="matrix(0.27356100393182425,0,0,0.27356100393182425,54.48292470511318,90.80487450852198)"></circle><circle r="5" cx="75" cy="135" fill="#d1f1f4" transform="matrix(0.24029109532103313,0,0,0.24029109532103313,56.97816785092252,102.56070213166052)"></circle><circle r="5" cx="75" cy="145" fill="#d1f1f4" transform="matrix(0.2440930086604117,0,0,0.2440930086604117,56.69302435046912,109.6065137442403)"></circle><circle r="5" cx="75" cy="155" fill="#d1f1f4" transform="matrix(0.27673861695751467,0,0,0.27673861695751467,54.2446037281864,112.10551437158523)"></circle><circle r="5" cx="75" cy="165" fill="#d1f1f4" transform="matrix(0.31824850449421366,0,0,0.31824850449421366,51.131362162933975,112.48899675845475)"></circle><circle r="5" cx="75" cy="175" fill="#d1f1f4" transform="matrix(0.34592516294840253,0,0,0.34592516294840253,49.055612778869815,114.46309648402956)"></circle><circle r="5" cx="75" cy="185" fill="#d1f1f4" transform="matrix(0.3461659439373715,0,0,0.3461659439373715,49.03755420469714,120.95930037158628)"></circle><circle r="5" cx="75" cy="195" fill="#d1f1f4" transform="matrix(0.3210008414722253,0,0,0.3210008414722253,50.9249368895831,132.40483591291607)"></circle><circle r="5" cx="85" cy="5" fill="#d1f1f4" transform="matrix(0.27241267117519585,0,0,0.27241267117519585,61.844922950108355,3.6379366441240206)"></circle><circle r="5" cx="85" cy="15" fill="#d1f1f4" transform="matrix(0.29246106127131105,0,0,0.29246106127131105,60.140809791938565,10.613084080930335)"></circle><circle r="5" cx="85" cy="25" fill="#d1f1f4" transform="matrix(0.320637202625772,0,0,0.320637202625772,57.74583777680938,16.984069934355702)"></circle><circle r="5" cx="85" cy="35" fill="#d1f1f4" transform="matrix(0.36898619453122905,0,0,0.36898619453122905,53.63617346484553,22.085483191406983)"></circle><circle r="5" cx="85" cy="45" fill="#d1f1f4" transform="matrix(0.4362869881912621,0,0,0.4362869881912621,47.915606003742724,25.367085531393204)"></circle><circle r="5" cx="85" cy="55" fill="#d1f1f4" transform="matrix(0.5057765573627692,0,0,0.5057765573627692,42.00899262416462,27.182289345047696)"></circle><circle r="5" cx="85" cy="65" fill="#d1f1f4" transform="matrix(0.5628897495421699,0,0,0.5628897495421699,37.15437128891556,28.412166279758956)"></circle><circle r="5" cx="85" cy="75" fill="#d1f1f4" transform="matrix(0.5956952577927709,0,0,0.5956952577927709,34.36590308761448,30.322855665542185)"></circle><circle r="5" cx="85" cy="85" fill="#d1f1f4" transform="matrix(0.595852318107887,0,0,0.595852318107887,34.352552960829605,34.352552960829605)"></circle><circle r="5" cx="85" cy="95" fill="#d1f1f4" transform="matrix(0.5583950090015045,0,0,0.5583950090015045,37.536424234872115,41.95247414485707)"></circle><circle r="5" cx="85" cy="105" fill="#d1f1f4" transform="matrix(0.489695764305502,0,0,0.489695764305502,43.37586003403233,53.58194474792229)"></circle><circle r="5" cx="85" cy="115" fill="#d1f1f4" transform="matrix(0.4098567792356094,0,0,0.4098567792356094,50.1621737649732,67.86647038790491)"></circle><circle r="5" cx="85" cy="125" fill="#d1f1f4" transform="matrix(0.34137501562321537,0,0,0.34137501562321537,55.98312367202669,82.32812304709807)"></circle><circle r="5" cx="85" cy="135" fill="#d1f1f4" transform="matrix(0.2974462527293452,0,0,0.2974462527293452,59.71706851800566,94.84475588153839)"></circle><circle r="5" cx="85" cy="145" fill="#d1f1f4" transform="matrix(0.2836778315372405,0,0,0.2836778315372405,60.88738431933456,103.86671442710013)"></circle><circle r="5" cx="85" cy="155" fill="#d1f1f4" transform="matrix(0.2984683865493308,0,0,0.2984683865493308,59.630187143306884,108.73740008485373)"></circle><circle r="5" cx="85" cy="165" fill="#d1f1f4" transform="matrix(0.3270569297585716,0,0,0.3270569297585716,57.20016097052142,111.03560658983568)"></circle><circle r="5" cx="85" cy="175" fill="#d1f1f4" transform="matrix(0.349513420718288,0,0,0.349513420718288,55.29135923894552,113.8351513742996)"></circle><circle r="5" cx="85" cy="185" fill="#d1f1f4" transform="matrix(0.3511842037569366,0,0,0.3511842037569366,55.14934268066039,120.03092230496674)"></circle><circle r="5" cx="85" cy="195" fill="#d1f1f4" transform="matrix(0.3308087724700255,0,0,0.3308087724700255,56.88125434004783,130.49228936834504)"></circle><circle r="5" cx="95" cy="5" fill="#d1f1f4" transform="matrix(0.31582437033318045,0,0,0.31582437033318045,64.99668481834786,3.420878148334098)"></circle><circle r="5" cx="95" cy="15" fill="#d1f1f4" transform="matrix(0.33581001036822544,0,0,0.33581001036822544,63.09804901501858,9.962849844476619)"></circle><circle r="5" cx="95" cy="25" fill="#d1f1f4" transform="matrix(0.35185874998500155,0,0,0.35185874998500155,61.57341875142485,16.20353125037496)"></circle><circle r="5" cx="95" cy="35" fill="#d1f1f4" transform="matrix(0.38183945079916953,0,0,0.38183945079916953,58.725252174078896,21.635619222029064)"></circle><circle r="5" cx="95" cy="45" fill="#d1f1f4" transform="matrix(0.4299750308156609,0,0,0.4299750308156609,54.152372072512215,25.65112361329526)"></circle><circle r="5" cx="95" cy="55" fill="#d1f1f4" transform="matrix(0.48761762996539765,0,0,0.48761762996539765,48.67632515328722,28.18103035190313)"></circle><circle r="5" cx="95" cy="65" fill="#d1f1f4" transform="matrix(0.5433910576916623,0,0,0.5433910576916623,43.377849519292084,29.67958125004195)"></circle><circle r="5" cx="95" cy="75" fill="#d1f1f4" transform="matrix(0.58229179217528,0,0,0.58229179217528,39.682279743348396,31.328115586853997)"></circle><circle r="5" cx="95" cy="85" fill="#d1f1f4" transform="matrix(0.5930418773073945,0,0,0.5930418773073945,38.66102165579752,34.591440428871465)"></circle><circle r="5" cx="95" cy="95" fill="#d1f1f4" transform="matrix(0.5723759731319581,0,0,0.5723759731319581,40.62428255246398,40.62428255246398)"></circle><circle r="5" cx="95" cy="105" fill="#d1f1f4" transform="matrix(0.523286927709155,0,0,0.523286927709155,45.28774186763028,50.05487259053873)"></circle><circle r="5" cx="95" cy="115" fill="#d1f1f4" transform="matrix(0.45736645279467464,0,0,0.45736645279467464,51.550186984505906,62.40285792861242)"></circle><circle r="5" cx="95" cy="125" fill="#d1f1f4" transform="matrix(0.3903882725896324,0,0,0.3903882725896324,57.913114103984924,76.20146592629595)"></circle><circle r="5" cx="95" cy="135" fill="#d1f1f4" transform="matrix(0.33602396288919584,0,0,0.33602396288919584,63.077723525526395,89.63676500995857)"></circle><circle r="5" cx="95" cy="145" fill="#d1f1f4" transform="matrix(0.30749669778170946,0,0,0.30749669778170946,65.7878137107376,100.41297882165213)"></circle><circle r="5" cx="95" cy="155" fill="#d1f1f4" transform="matrix(0.3095129796197046,0,0,0.3095129796197046,65.59626693612806,107.02548815894579)"></circle><circle r="5" cx="95" cy="165" fill="#d1f1f4" transform="matrix(0.33303181054689557,0,0,0.33303181054689557,63.36197799804492,110.04975125976223)"></circle><circle r="5" cx="95" cy="175" fill="#d1f1f4" transform="matrix(0.3607228454000856,0,0,0.3607228454000856,60.73132968699187,111.87350205498502)"></circle><circle r="5" cx="95" cy="185" fill="#d1f1f4" transform="matrix(0.37593719521865837,0,0,0.37593719521865837,59.285966454227456,115.4516188845482)"></circle><circle r="5" cx="95" cy="195" fill="#d1f1f4" transform="matrix(0.37190165613169035,0,0,0.37190165613169035,59.66934266748942,122.47917705432039)"></circle><circle r="5" cx="105" cy="5" fill="#d1f1f4" transform="matrix(0.37051181336991235,0,0,0.37051181336991235,66.0962595961592,3.1474409331504383)"></circle><circle r="5" cx="105" cy="15" fill="#d1f1f4" transform="matrix(0.37996552700776914,0,0,0.37996552700776914,65.10361966418424,9.300517094883464)"></circle><circle r="5" cx="105" cy="25" fill="#d1f1f4" transform="matrix(0.3767950374234237,0,0,0.3767950374234237,65.43652107054052,15.580124064414408)"></circle><circle r="5" cx="105" cy="35" fill="#d1f1f4" transform="matrix(0.3849162448899801,0,0,0.3849162448899801,64.58379428655209,21.527931428850696)"></circle><circle r="5" cx="105" cy="45" fill="#d1f1f4" transform="matrix(0.4142164117758229,0,0,0.4142164117758229,61.50727676353859,26.36026147008797)"></circle><circle r="5" cx="105" cy="55" fill="#d1f1f4" transform="matrix(0.46450929492018617,0,0,0.46450929492018617,56.22652403338045,29.45198877938976)"></circle><circle r="5" cx="105" cy="65" fill="#d1f1f4" transform="matrix(0.5252637624089522,0,0,0.5252637624089522,49.84730494706002,30.857855443418103)"></circle><circle r="5" cx="105" cy="75" fill="#d1f1f4" transform="matrix(0.5762358418085531,0,0,0.5762358418085531,44.49523661010192,31.782311864358512)"></circle><circle r="5" cx="105" cy="85" fill="#d1f1f4" transform="matrix(0.5993017633279122,0,0,0.5993017633279122,42.07331485056922,34.059350117127465)"></circle><circle r="5" cx="105" cy="95" fill="#d1f1f4" transform="matrix(0.5882821148031281,0,0,0.5882821148031281,43.23037794567155,39.11319909370283)"></circle><circle r="5" cx="105" cy="105" fill="#d1f1f4" transform="matrix(0.5470001940121408,0,0,0.5470001940121408,47.56497962872521,47.56497962872521)"></circle><circle r="5" cx="105" cy="115" fill="#d1f1f4" transform="matrix(0.4839420310754612,0,0,0.4839420310754612,54.18608673707658,59.34666642632196)"></circle><circle r="5" cx="105" cy="125" fill="#d1f1f4" transform="matrix(0.4111543414417108,0,0,0.4111543414417108,61.82879414862037,73.60570731978615)"></circle><circle r="5" cx="105" cy="135" fill="#d1f1f4" transform="matrix(0.3450897402524628,0,0,0.3450897402524628,68.7655772734914,88.41288506591752)"></circle><circle r="5" cx="105" cy="145" fill="#d1f1f4" transform="matrix(0.3045264291339867,0,0,0.3045264291339867,73.02472494093139,100.84366777557193)"></circle><circle r="5" cx="105" cy="155" fill="#d1f1f4" transform="matrix(0.2991578038704792,0,0,0.2991578038704792,73.58843059359968,108.63054040007572)"></circle><circle r="5" cx="105" cy="165" fill="#d1f1f4" transform="matrix(0.3250361455536268,0,0,0.3250361455536268,70.87120471686919,111.36903598365157)"></circle><circle r="5" cx="105" cy="175" fill="#d1f1f4" transform="matrix(0.3668510339832288,0,0,0.3668510339832288,66.48064143176097,110.80106905293495)"></circle><circle r="5" cx="105" cy="185" fill="#d1f1f4" transform="matrix(0.40540905462879023,0,0,0.40540905462879023,62.43204926397703,109.9993248936738)"></circle><circle r="5" cx="105" cy="195" fill="#d1f1f4" transform="matrix(0.42748394526607697,0,0,0.42748394526607697,60.11418574706192,111.64063067311498)"></circle><circle r="5" cx="115" cy="5" fill="#d1f1f4" transform="matrix(0.4277032941767962,0,0,0.4277032941767962,65.81412116966844,2.861483529116019)"></circle><circle r="5" cx="115" cy="15" fill="#d1f1f4" transform="matrix(0.41652493853250294,0,0,0.41652493853250294,67.09963206876216,8.752125922012457)"></circle><circle r="5" cx="115" cy="25" fill="#d1f1f4" transform="matrix(0.38955401075045526,0,0,0.38955401075045526,70.20128876369765,15.261149731238618)"></circle><circle r="5" cx="115" cy="35" fill="#d1f1f4" transform="matrix(0.3748563809633543,0,0,0.3748563809633543,71.89151618921426,21.8800266662826)"></circle><circle r="5" cx="115" cy="45" fill="#d1f1f4" transform="matrix(0.38731713147390323,0,0,0.38731713147390323,70.45852988050113,27.570729083674355)"></circle><circle r="5" cx="115" cy="55" fill="#d1f1f4" transform="matrix(0.43383700160623007,0,0,0.43383700160623007,65.10874481528354,31.138964911657347)"></circle><circle r="5" cx="115" cy="65" fill="#d1f1f4" transform="matrix(0.5039511107218018,0,0,0.5039511107218018,57.045622266992794,32.24317780308289)"></circle><circle r="5" cx="115" cy="75" fill="#d1f1f4" transform="matrix(0.5718956599925821,0,0,0.5718956599925821,49.23199910085306,32.107825500556345)"></circle><circle r="5" cx="115" cy="85" fill="#d1f1f4" transform="matrix(0.6112650958303576,0,0,0.6112650958303576,44.704513979508874,33.0424668544196)"></circle><circle r="5" cx="115" cy="95" fill="#d1f1f4" transform="matrix(0.6091195464492404,0,0,0.6091195464492404,44.951252158337354,37.13364308732216)"></circle><circle r="5" cx="115" cy="105" fill="#d1f1f4" transform="matrix(0.5681700154203329,0,0,0.5681700154203329,49.66044822666173,45.34214838086505)"></circle><circle r="5" cx="115" cy="115" fill="#d1f1f4" transform="matrix(0.4972960508345072,0,0,0.4972960508345072,57.81095415403168,57.81095415403168)"></circle><circle r="5" cx="115" cy="125" fill="#d1f1f4" transform="matrix(0.4113760514539472,0,0,0.4113760514539472,67.69175408279608,73.5779935682566)"></circle><circle r="5" cx="115" cy="135" fill="#d1f1f4" transform="matrix(0.3323824649588569,0,0,0.3323824649588569,76.77601652973145,90.12836723055432)"></circle><circle r="5" cx="115" cy="145" fill="#d1f1f4" transform="matrix(0.28168609243549403,0,0,0.28168609243549403,82.60609936991818,104.15551659685337)"></circle><circle r="5" cx="115" cy="155" fill="#d1f1f4" transform="matrix(0.2725769057363604,0,0,0.2725769057363604,83.65365584031855,112.75057961086414)"></circle><circle r="5" cx="115" cy="165" fill="#d1f1f4" transform="matrix(0.30497170967915566,0,0,0.30497170967915566,79.9282533868971,114.67966790293931)"></circle><circle r="5" cx="115" cy="175" fill="#d1f1f4" transform="matrix(0.36482669930155903,0,0,0.36482669930155903,73.04492958032071,111.15532762222716)"></circle><circle r="5" cx="115" cy="185" fill="#d1f1f4" transform="matrix(0.43018957844343275,0,0,0.43018957844343275,65.52819847900523,105.41492798796494)"></circle><circle r="5" cx="115" cy="195" fill="#d1f1f4" transform="matrix(0.4813726716521056,0,0,0.4813726716521056,59.64214276000785,101.1323290278394)"></circle><circle r="5" cx="125" cy="5" fill="#d1f1f4" transform="matrix(0.4776745107934216,0,0,0.4776745107934216,65.2906861508223,2.611627446032892)"></circle><circle r="5" cx="125" cy="15" fill="#d1f1f4" transform="matrix(0.4398600568592894,0,0,0.4398600568592894,70.01749289258882,8.402099147110658)"></circle><circle r="5" cx="125" cy="25" fill="#d1f1f4" transform="matrix(0.3889220050582937,0,0,0.3889220050582937,76.38474936771328,15.276949873542657)"></circle><circle r="5" cx="125" cy="35" fill="#d1f1f4" transform="matrix(0.3529481496937698,0,0,0.3529481496937698,80.88148128827876,22.64681476071806)"></circle><circle r="5" cx="125" cy="45" fill="#d1f1f4" transform="matrix(0.35098124430358185,0,0,0.35098124430358185,81.12734446205226,29.205844006338815)"></circle><circle r="5" cx="125" cy="55" fill="#d1f1f4" transform="matrix(0.39542341869817565,0,0,0.39542341869817565,75.57207266272803,33.25171197160034)"></circle><circle r="5" cx="125" cy="65" fill="#d1f1f4" transform="matrix(0.4759475665801618,0,0,0.4759475665801618,65.50655417747979,34.063408172289485)"></circle><circle r="5" cx="125" cy="75" fill="#d1f1f4" transform="matrix(0.5621031327608077,0,0,0.5621031327608077,54.73710840489903,32.842265042939424)"></circle><circle r="5" cx="125" cy="85" fill="#d1f1f4" transform="matrix(0.6195071628866587,0,0,0.6195071628866587,47.561604639167655,32.341891154634006)"></circle><circle r="5" cx="125" cy="95" fill="#d1f1f4" transform="matrix(0.6271411055424087,0,0,0.6271411055424087,46.60736180719891,35.42159497347118)"></circle><circle r="5" cx="125" cy="105" fill="#d1f1f4" transform="matrix(0.5849723620579131,0,0,0.5849723620579131,51.87845474276085,43.57790198391912)"></circle><circle r="5" cx="125" cy="115" fill="#d1f1f4" transform="matrix(0.5053761168876874,0,0,0.5053761168876874,61.82798538903908,56.88174655791595)"></circle><circle r="5" cx="125" cy="125" fill="#d1f1f4" transform="matrix(0.40793292350883853,0,0,0.40793292350883853,74.00838456139519,74.00838456139519)"></circle><circle r="5" cx="125" cy="135" fill="#d1f1f4" transform="matrix(0.31830724008208444,0,0,0.31830724008208444,85.21159498973944,92.0285225889186)"></circle><circle r="5" cx="125" cy="145" fill="#d1f1f4" transform="matrix(0.2598893895090927,0,0,0.2598893895090927,92.51382631136342,107.31603852118155)"></circle><circle r="5" cx="125" cy="155" fill="#d1f1f4" transform="matrix(0.24834700886055375,0,0,0.24834700886055375,93.95662389243078,116.50621362661417)"></circle><circle r="5" cx="125" cy="165" fill="#d1f1f4" transform="matrix(0.2862411610012368,0,0,0.2862411610012368,89.2198548748454,117.77020843479593)"></circle><circle r="5" cx="125" cy="175" fill="#d1f1f4" transform="matrix(0.3602958954129413,0,0,0.3602958954129413,79.96301307338234,111.94821830273527)"></circle><circle r="5" cx="125" cy="185" fill="#d1f1f4" transform="matrix(0.4462871866799926,0,0,0.4462871866799926,69.21410166500092,102.43687046420136)"></circle><circle r="5" cx="125" cy="195" fill="#d1f1f4" transform="matrix(0.5197619475400823,0,0,0.5197619475400823,60.029756557489705,93.64642022968395)"></circle><circle r="5" cx="135" cy="5" fill="#d1f1f4" transform="matrix(0.5142132688561768,0,0,0.5142132688561768,65.58120870441613,2.428933655719116)"></circle><circle r="5" cx="135" cy="15" fill="#d1f1f4" transform="matrix(0.45032892409939224,0,0,0.45032892409939224,74.20559524658205,8.245066138509117)"></circle><circle r="5" cx="135" cy="25" fill="#d1f1f4" transform="matrix(0.378827351116579,0,0,0.378827351116579,83.85830759926183,15.529316222085525)"></circle><circle r="5" cx="135" cy="35" fill="#d1f1f4" transform="matrix(0.32461370102771947,0,0,0.32461370102771947,91.17715036125787,23.638520464029817)"></circle><circle r="5" cx="135" cy="45" fill="#d1f1f4" transform="matrix(0.31042909503919347,0,0,0.31042909503919347,93.09207216970889,31.030690723236294)"></circle><circle r="5" cx="135" cy="55" fill="#d1f1f4" transform="matrix(0.3523499978236216,0,0,0.3523499978236216,87.43275029381108,35.620750119700816)"></circle><circle r="5" cx="135" cy="65" fill="#d1f1f4" transform="matrix(0.4405856738098455,0,0,0.4405856738098455,75.52093403567086,36.36193120236004)"></circle><circle r="5" cx="135" cy="75" fill="#d1f1f4" transform="matrix(0.5415311270885761,0,0,0.5415311270885761,61.893297843042234,34.385165468356796)"></circle><circle r="5" cx="135" cy="85" fill="#d1f1f4" transform="matrix(0.614539122283555,0,0,0.614539122283555,52.03721849172007,32.76417460589782)"></circle><circle r="5" cx="135" cy="95" fill="#d1f1f4" transform="matrix(0.6316443462860281,0,0,0.6316443462860281,49.728013251386216,34.99378710282733)"></circle><circle r="5" cx="135" cy="105" fill="#d1f1f4" transform="matrix(0.5901306953043512,0,0,0.5901306953043512,55.33235613391258,43.03627699304312)"></circle><circle r="5" cx="135" cy="115" fill="#d1f1f4" transform="matrix(0.5076931707905279,0,0,0.5076931707905279,66.46142194327874,56.61528535908929)"></circle><circle r="5" cx="135" cy="125" fill="#d1f1f4" transform="matrix(0.40692825942585853,0,0,0.40692825942585853,80.0646849775091,74.13396757176768)"></circle><circle r="5" cx="135" cy="135" fill="#d1f1f4" transform="matrix(0.31418128871402773,0,0,0.31418128871402773,92.58552602360626,92.58552602360626)"></circle><circle r="5" cx="135" cy="145" fill="#d1f1f4" transform="matrix(0.2532792432309764,0,0,0.2532792432309764,100.80730216381818,108.27450973150843)"></circle><circle r="5" cx="135" cy="155" fill="#d1f1f4" transform="matrix(0.240250009213666,0,0,0.240250009213666,102.56624875615509,117.76124857188177)"></circle><circle r="5" cx="135" cy="165" fill="#d1f1f4" transform="matrix(0.2795259827883826,0,0,0.2795259827883826,97.26399232356835,118.87821283991687)"></circle><circle r="5" cx="135" cy="175" fill="#d1f1f4" transform="matrix(0.3586029672113987,0,0,0.3586029672113987,86.58859942646117,112.24448073800522)"></circle><circle r="5" cx="135" cy="185" fill="#d1f1f4" transform="matrix(0.4522340116123195,0,0,0.4522340116123195,73.94840843233686,101.33670785172089)"></circle><circle r="5" cx="135" cy="195" fill="#d1f1f4" transform="matrix(0.5342071159541245,0,0,0.5342071159541245,62.882039346193196,90.82961238894572)"></circle><circle r="5" cx="145" cy="5" fill="#d1f1f4" transform="matrix(0.5371312149060161,0,0,0.5371312149060161,67.11597383862767,2.3143439254699194)"></circle><circle r="5" cx="145" cy="15" fill="#d1f1f4" transform="matrix(0.45410538289174424,0,0,0.45410538289174424,79.15471948069708,8.188419256623837)"></circle><circle r="5" cx="145" cy="25" fill="#d1f1f4" transform="matrix(0.3663406951174398,0,0,0.3663406951174398,91.88059920797123,15.841482622064005)"></circle><circle r="5" cx="145" cy="35" fill="#d1f1f4" transform="matrix(0.29798512146224,0,0,0.29798512146224,101.79215738797521,24.5705207488216)"></circle><circle r="5" cx="145" cy="45" fill="#d1f1f4" transform="matrix(0.2734381191324208,0,0,0.2734381191324208,105.35147272579898,32.69528463904106)"></circle><circle r="5" cx="145" cy="55" fill="#d1f1f4" transform="matrix(0.3104974937007563,0,0,0.3104974937007563,99.97786341339034,37.9226378464584)"></circle><circle r="5" cx="145" cy="65" fill="#d1f1f4" transform="matrix(0.4004484683779491,0,0,0.4004484683779491,86.93497208519739,38.970849555433304)"></circle><circle r="5" cx="145" cy="75" fill="#d1f1f4" transform="matrix(0.5086872863905167,0,0,0.5086872863905167,71.24034347337508,36.848453520711246)"></circle><circle r="5" cx="145" cy="85" fill="#d1f1f4" transform="matrix(0.5914259942805995,0,0,0.5914259942805995,59.24323082931308,34.728790486149045)"></circle><circle r="5" cx="145" cy="95" fill="#d1f1f4" transform="matrix(0.6170936925092427,0,0,0.6170936925092427,55.52141458615981,36.37609921162194)"></circle><circle r="5" cx="145" cy="105" fill="#d1f1f4" transform="matrix(0.5813022921065116,0,0,0.5813022921065116,60.711167644555815,43.96325932881628)"></circle><circle r="5" cx="145" cy="115" fill="#d1f1f4" transform="matrix(0.5037707792256366,0,0,0.5037707792256366,71.95323701228268,57.06636038905179)"></circle><circle r="5" cx="145" cy="125" fill="#d1f1f4" transform="matrix(0.4086290590416853,0,0,0.4086290590416853,85.74878643895563,73.92136761978934)"></circle><circle r="5" cx="145" cy="135" fill="#d1f1f4" transform="matrix(0.3211706631880641,0,0,0.3211706631880641,98.4302538377307,91.64196046961135)"></circle><circle r="5" cx="145" cy="145" fill="#d1f1f4" transform="matrix(0.26471571348722456,0,0,0.26471571348722456,106.61622154435244,106.61622154435244)"></circle><circle r="5" cx="145" cy="155" fill="#d1f1f4" transform="matrix(0.2545470697096506,0,0,0.2545470697096506,108.09067489210067,115.54520419500416)"></circle><circle r="5" cx="145" cy="165" fill="#d1f1f4" transform="matrix(0.29327629394223464,0,0,0.29327629394223464,102.47493737837598,116.60941149953129)"></circle><circle r="5" cx="145" cy="175" fill="#d1f1f4" transform="matrix(0.36758314707676015,0,0,0.36758314707676015,91.70044367386978,110.67294926156697)"></circle><circle r="5" cx="145" cy="185" fill="#d1f1f4" transform="matrix(0.4530067045165279,0,0,0.4530067045165279,79.31402784510345,101.19375966444234)"></circle><circle r="5" cx="145" cy="195" fill="#d1f1f4" transform="matrix(0.5255582849800109,0,0,0.5255582849800109,68.79404867789842,92.51613442889787)"></circle><circle r="5" cx="155" cy="5" fill="#d1f1f4" transform="matrix(0.5490497997237096,0,0,0.5490497997237096,69.89728104282501,2.254751001381452)"></circle><circle r="5" cx="155" cy="15" fill="#d1f1f4" transform="matrix(0.4560160350119576,0,0,0.4560160350119576,84.31751457314657,8.159759474820635)"></circle><circle r="5" cx="155" cy="25" fill="#d1f1f4" transform="matrix(0.3580987800891074,0,0,0.3580987800891074,99.49468908618834,16.047530497772314)"></circle><circle r="5" cx="155" cy="35" fill="#d1f1f4" transform="matrix(0.28104888720743304,0,0,0.28104888720743304,111.43742248284788,25.163288947739844)"></circle><circle r="5" cx="155" cy="45" fill="#d1f1f4" transform="matrix(0.24838754570972632,0,0,0.24838754570972632,116.49993041499242,33.822560443062315)"></circle><circle r="5" cx="155" cy="55" fill="#d1f1f4" transform="matrix(0.27766136874446246,0,0,0.27766136874446246,111.96248784460832,39.728624719054565)"></circle><circle r="5" cx="155" cy="65" fill="#d1f1f4" transform="matrix(0.36179534689810355,0,0,0.36179534689810355,98.92172123079395,41.483302451623274)"></circle><circle r="5" cx="155" cy="75" fill="#d1f1f4" transform="matrix(0.4677192017820341,0,0,0.4677192017820341,82.50352372378472,39.92105986634744)"></circle><circle r="5" cx="155" cy="85" fill="#d1f1f4" transform="matrix(0.5527163924650073,0,0,0.5527163924650073,69.32895916792387,38.019106640474384)"></circle><circle r="5" cx="155" cy="95" fill="#d1f1f4" transform="matrix(0.5850917108588849,0,0,0.5850917108588849,64.31078481687284,39.41628746840593)"></circle><circle r="5" cx="155" cy="105" fill="#d1f1f4" transform="matrix(0.5591964501806603,0,0,0.5591964501806603,68.32455022199765,46.284372731030665)"></circle><circle r="5" cx="155" cy="115" fill="#d1f1f4" transform="matrix(0.49398380199079106,0,0,0.49398380199079106,78.43251069142738,58.19186277105903)"></circle><circle r="5" cx="155" cy="125" fill="#d1f1f4" transform="matrix(0.41264569246973215,0,0,0.41264569246973215,91.03991766719152,73.41928844128348)"></circle><circle r="5" cx="155" cy="135" fill="#d1f1f4" transform="matrix(0.3387163395424322,0,0,0.3387163395424322,102.49896737092301,89.27329416177164)"></circle><circle r="5" cx="155" cy="145" fill="#d1f1f4" transform="matrix(0.2959900956729018,0,0,0.2959900956729018,109.12153517070021,102.08143612742924)"></circle><circle r="5" cx="155" cy="155" fill="#d1f1f4" transform="matrix(0.2958051523223937,0,0,0.2958051523223937,109.15020139002898,109.15020139002898)"></circle><circle r="5" cx="155" cy="165" fill="#d1f1f4" transform="matrix(0.33394504237099754,0,0,0.33394504237099754,103.23851843249538,109.8990680087854)"></circle><circle r="5" cx="155" cy="175" fill="#d1f1f4" transform="matrix(0.3949489482547102,0,0,0.3949489482547102,93.78291302051991,105.88393405542571)"></circle><circle r="5" cx="155" cy="185" fill="#d1f1f4" transform="matrix(0.4572295292829514,0,0,0.4572295292829514,84.12942296114254,100.41253708265398)"></circle><circle r="5" cx="155" cy="195" fill="#d1f1f4" transform="matrix(0.5030187506836764,0,0,0.5030187506836764,77.03209364403016,96.9113436166831)"></circle><circle r="5" cx="165" cy="5" fill="#d1f1f4" transform="matrix(0.5509795036626741,0,0,0.5509795036626741,74.08838189565877,2.2451024816866294)"></circle><circle r="5" cx="165" cy="15" fill="#d1f1f4" transform="matrix(0.45633134988860785,0,0,0.45633134988860785,89.7053272683797,8.155029751670881)"></circle><circle r="5" cx="165" cy="25" fill="#d1f1f4" transform="matrix(0.3567368566014627,0,0,0.3567368566014627,106.13841866075865,16.08157858496343)"></circle><circle r="5" cx="165" cy="35" fill="#d1f1f4" transform="matrix(0.2782023028722326,0,0,0.2782023028722326,119.09662002608162,25.262919399471862)"></circle><circle r="5" cx="165" cy="45" fill="#d1f1f4" transform="matrix(0.24146829029901046,0,0,0.24146829029901046,125.15773210066328,34.133926936544526)"></circle><circle r="5" cx="165" cy="55" fill="#d1f1f4" transform="matrix(0.2596813001132203,0,0,0.2596813001132203,122.15258548131865,40.71752849377288)"></circle><circle r="5" cx="165" cy="65" fill="#d1f1f4" transform="matrix(0.32736623014303295,0,0,0.32736623014303295,110.98457202639956,43.72119504070286)"></circle><circle r="5" cx="165" cy="75" fill="#d1f1f4" transform="matrix(0.41801427107980993,0,0,0.41801427107980993,96.02764527183136,43.64892966901425)"></circle><circle r="5" cx="165" cy="85" fill="#d1f1f4" transform="matrix(0.4954158304556083,0,0,0.4954158304556083,83.25638797482463,42.8896544112733)"></circle><circle r="5" cx="165" cy="95" fill="#d1f1f4" transform="matrix(0.5311793674967948,0,0,0.5311793674967948,77.35540436302885,44.53796008780449)"></circle><circle r="5" cx="165" cy="105" fill="#d1f1f4" transform="matrix(0.5190620780978594,0,0,0.5190620780978594,79.3547571138532,50.49848179972476)"></circle><circle r="5" cx="165" cy="115" fill="#d1f1f4" transform="matrix(0.4745150096843871,0,0,0.4745150096843871,86.70502340207614,60.43077388629548)"></circle><circle r="5" cx="165" cy="125" fill="#d1f1f4" transform="matrix(0.4161343565608033,0,0,0.4161343565608033,96.33783116746746,72.98320542989958)"></circle><circle r="5" cx="165" cy="135" fill="#d1f1f4" transform="matrix(0.36606587012130964,0,0,0.36606587012130964,104.59913142998391,85.5811075336232)"></circle><circle r="5" cx="165" cy="145" fill="#d1f1f4" transform="matrix(0.34572042327424146,0,0,0.34572042327424146,107.95613015975016,94.87053862523499)"></circle><circle r="5" cx="165" cy="155" fill="#d1f1f4" transform="matrix(0.36083126659234566,0,0,0.36083126659234566,105.46284101226297,99.07115367818642)"></circle><circle r="5" cx="165" cy="165" fill="#d1f1f4" transform="matrix(0.399530114778179,0,0,0.399530114778179,99.07753106160047,99.07753106160047)"></circle><circle r="5" cx="165" cy="175" fill="#d1f1f4" transform="matrix(0.44253090066521605,0,0,0.44253090066521605,91.98240139023935,97.55709238358719)"></circle><circle r="5" cx="165" cy="185" fill="#d1f1f4" transform="matrix(0.4722587673707061,0,0,0.4722587673707061,87.0773033838335,97.63212803641937)"></circle><circle r="5" cx="165" cy="195" fill="#d1f1f4" transform="matrix(0.4799796126022922,0,0,0.4799796126022922,85.80336392062179,101.40397554255301)"></circle><circle r="5" cx="175" cy="5" fill="#d1f1f4" transform="matrix(0.5427659000995435,0,0,0.5427659000995435,80.01596748257988,2.2861704995022825)"></circle><circle r="5" cx="175" cy="15" fill="#d1f1f4" transform="matrix(0.4549887836519722,0,0,0.4549887836519722,95.37696286090487,8.175168245220416)"></circle><circle r="5" cx="175" cy="25" fill="#d1f1f4" transform="matrix(0.36253484656333235,0,0,0.36253484656333235,111.55640185141684,15.936628835916691)"></circle><circle r="5" cx="175" cy="35" fill="#d1f1f4" transform="matrix(0.28930620017423775,0,0,0.28930620017423775,124.3714149695084,24.87428299390168)"></circle><circle r="5" cx="175" cy="45" fill="#d1f1f4" transform="matrix(0.24908452175862583,0,0,0.24908452175862583,131.41020869224047,33.79119652086184)"></circle><circle r="5" cx="175" cy="55" fill="#d1f1f4" transform="matrix(0.2490072020197071,0,0,0.2490072020197071,131.42373964655127,41.304603888916105)"></circle><circle r="5" cx="175" cy="65" fill="#d1f1f4" transform="matrix(0.2891599536617442,0,0,0.2891599536617442,124.39700810919476,46.20460301198663)"></circle><circle r="5" cx="175" cy="75" fill="#d1f1f4" transform="matrix(0.3537464912887269,0,0,0.3537464912887269,113.09436402447278,48.46901315334548)"></circle><circle r="5" cx="175" cy="85" fill="#d1f1f4" transform="matrix(0.4161825490376343,0,0,0.4161825490376343,102.168053918414,49.62448333180109)"></circle><circle r="5" cx="175" cy="95" fill="#d1f1f4" transform="matrix(0.4533434792408806,0,0,0.4533434792408806,95.6648911328459,51.93236947211634)"></circle><circle r="5" cx="175" cy="105" fill="#d1f1f4" transform="matrix(0.4586865427336933,0,0,0.4586865427336933,94.72985502160367,56.837913012962204)"></circle><circle r="5" cx="175" cy="115" fill="#d1f1f4" transform="matrix(0.4418843923695058,0,0,0.4418843923695058,97.6702313353365,64.18329487750684)"></circle><circle r="5" cx="175" cy="125" fill="#d1f1f4" transform="matrix(0.41535558424336866,0,0,0.41535558424336866,102.31277275741049,73.08055196957892)"></circle><circle r="5" cx="175" cy="135" fill="#d1f1f4" transform="matrix(0.39850857431832454,0,0,0.39850857431832454,105.2609994942932,81.2013424670262)"></circle><circle r="5" cx="175" cy="145" fill="#d1f1f4" transform="matrix(0.40632702945958066,0,0,0.40632702945958066,103.89276984457338,86.0825807283608)"></circle><circle r="5" cx="175" cy="155" fill="#d1f1f4" transform="matrix(0.43804402083788296,0,0,0.43804402083788296,98.34229635337049,87.10317677012814)"></circle><circle r="5" cx="175" cy="165" fill="#d1f1f4" transform="matrix(0.47762965179329997,0,0,0.47762965179329997,91.4148109361725,86.1911074541055)"></circle><circle r="5" cx="175" cy="175" fill="#d1f1f4" transform="matrix(0.5028304554890832,0,0,0.5028304554890832,87.00467028941044,87.00467028941044)"></circle><circle r="5" cx="175" cy="185" fill="#d1f1f4" transform="matrix(0.4992119394661393,0,0,0.4992119394661393,87.63791059342563,92.64579119876423)"></circle><circle r="5" cx="175" cy="195" fill="#d1f1f4" transform="matrix(0.46749610690297105,0,0,0.46749610690297105,93.18818129198007,103.83825915392065)"></circle><circle r="5" cx="185" cy="5" fill="#d1f1f4" transform="matrix(0.5274488212438095,0,0,0.5274488212438095,87.42196806989523,2.3627558937809523)"></circle><circle r="5" cx="185" cy="15" fill="#d1f1f4" transform="matrix(0.45267834300190696,0,0,0.45267834300190696,101.25450654464721,8.209824854971394)"></circle><circle r="5" cx="185" cy="25" fill="#d1f1f4" transform="matrix(0.3738791046623914,0,0,0.3738791046623914,115.8323656374576,15.653022383440215)"></circle><circle r="5" cx="185" cy="35" fill="#d1f1f4" transform="matrix(0.3063194428773799,0,0,0.3063194428773799,128.33090306768472,24.278819499291703)"></circle><circle r="5" cx="185" cy="45" fill="#d1f1f4" transform="matrix(0.25786976170562015,0,0,0.25786976170562015,137.29409408446026,33.3958607232471)"></circle><circle r="5" cx="185" cy="55" fill="#d1f1f4" transform="matrix(0.23527179871978743,0,0,0.23527179871978743,141.47471723683933,42.06005107041169)"></circle><circle r="5" cx="185" cy="65" fill="#d1f1f4" transform="matrix(0.24410210947051836,0,0,0.24410210947051836,139.8411097479541,49.13336288441631)"></circle><circle r="5" cx="185" cy="75" fill="#d1f1f4" transform="matrix(0.27950664383921836,0,0,0.27950664383921836,133.2912708897446,54.037001712058625)"></circle><circle r="5" cx="185" cy="85" fill="#d1f1f4" transform="matrix(0.32529304135868836,0,0,0.32529304135868836,124.82078734864265,57.35009148451149)"></circle><circle r="5" cx="185" cy="95" fill="#d1f1f4" transform="matrix(0.36441203752671314,0,0,0.36441203752671314,117.58377305755806,60.380856434962254)"></circle><circle r="5" cx="185" cy="105" fill="#d1f1f4" transform="matrix(0.38999667115071546,0,0,0.38999667115071546,112.85061583711764,64.05034952917488)"></circle><circle r="5" cx="185" cy="115" fill="#d1f1f4" transform="matrix(0.40425674463223166,0,0,0.40425674463223166,110.21250224303715,68.51047436729337)"></circle><circle r="5" cx="185" cy="125" fill="#d1f1f4" transform="matrix(0.41341107063166005,0,0,0.41341107063166005,108.51895193314289,73.32361617104249)"></circle><circle r="5" cx="185" cy="135" fill="#d1f1f4" transform="matrix(0.4318551748846651,0,0,0.4318551748846651,105.10679264633696,76.6995513905702)"></circle><circle r="5" cx="185" cy="145" fill="#d1f1f4" transform="matrix(0.46706822894219274,0,0,0.46706822894219274,98.59237764569434,77.27510680338206)"></circle><circle r="5" cx="185" cy="155" fill="#d1f1f4" transform="matrix(0.5126123006385166,0,0,0.5126123006385166,90.16672438187443,75.54509340102993)"></circle><circle r="5" cx="185" cy="165" fill="#d1f1f4" transform="matrix(0.5507089798232485,0,0,0.5507089798232485,83.11883873269903,74.133018329164)"></circle><circle r="5" cx="185" cy="175" fill="#d1f1f4" transform="matrix(0.5604378894140225,0,0,0.5604378894140225,81.31899045840584,76.92336935254606)"></circle><circle r="5" cx="185" cy="185" fill="#d1f1f4" transform="matrix(0.5304169820009731,0,0,0.5304169820009731,86.87285832981998,86.87285832981998)"></circle><circle r="5" cx="185" cy="195" fill="#d1f1f4" transform="matrix(0.467927384450537,0,0,0.467927384450537,98.43343387665065,103.75416003214528)"></circle><circle r="5" cx="195" cy="5" fill="#d1f1f4" transform="matrix(0.516905164446469,0,0,0.516905164446469,94.20349293293856,2.4154741777676554)"></circle><circle r="5" cx="195" cy="15" fill="#d1f1f4" transform="matrix(0.45474132918579374,0,0,0.45474132918579374,106.32544080877022,8.178880062213093)"></circle><circle r="5" cx="195" cy="25" fill="#d1f1f4" transform="matrix(0.38713743595051897,0,0,0.38713743595051897,119.5081999896488,15.321564101237026)"></circle><circle r="5" cx="195" cy="35" fill="#d1f1f4" transform="matrix(0.31985504805031983,0,0,0.31985504805031983,132.62826563018763,23.805073318238804)"></circle><circle r="5" cx="195" cy="45" fill="#d1f1f4" transform="matrix(0.2594686131934263,0,0,0.2594686131934263,144.40362042728188,33.32391240629582)"></circle><circle r="5" cx="195" cy="55" fill="#d1f1f4" transform="matrix(0.215994340512558,0,0,0.215994340512558,152.88110360005118,43.120311271809314)"></circle><circle r="5" cx="195" cy="65" fill="#d1f1f4" transform="matrix(0.19861817422314532,0,0,0.19861817422314532,156.26945602648667,52.08981867549555)"></circle><circle r="5" cx="195" cy="75" fill="#d1f1f4" transform="matrix(0.210291116446827,0,0,0.210291116446827,153.99323229286875,59.228166266487975)"></circle><circle r="5" cx="195" cy="85" fill="#d1f1f4" transform="matrix(0.24391108263487796,0,0,0.24391108263487796,147.4373388861988,64.26755797603538)"></circle><circle r="5" cx="195" cy="95" fill="#d1f1f4" transform="matrix(0.2881752415123068,0,0,0.2881752415123068,138.8058279051002,67.62335205633086)"></circle><circle r="5" cx="195" cy="105" fill="#d1f1f4" transform="matrix(0.3352722920340247,0,0,0.3352722920340247,129.6219030533652,69.79640933642742)"></circle><circle r="5" cx="195" cy="115" fill="#d1f1f4" transform="matrix(0.3788304455322405,0,0,0.3788304455322405,121.1280631212131,71.43449876379233)"></circle><circle r="5" cx="195" cy="125" fill="#d1f1f4" transform="matrix(0.4194955030116545,0,0,0.4194955030116545,113.19837691272737,72.56306212354319)"></circle><circle r="5" cx="195" cy="135" fill="#d1f1f4" transform="matrix(0.4661854248036593,0,0,0.4661854248036593,104.09384216328644,72.064967651506)"></circle><circle r="5" cx="195" cy="145" fill="#d1f1f4" transform="matrix(0.5203774316608984,0,0,0.5203774316608984,93.5264008261248,69.54527240916973)"></circle><circle r="5" cx="195" cy="155" fill="#d1f1f4" transform="matrix(0.5724444294400315,0,0,0.5724444294400315,83.37333625919386,66.27111343679512)"></circle><circle r="5" cx="195" cy="165" fill="#d1f1f4" transform="matrix(0.6054104570819208,0,0,0.6054104570819208,76.94496086902545,65.10727458148307)"></circle><circle r="5" cx="195" cy="175" fill="#d1f1f4" transform="matrix(0.6018847958928792,0,0,0.6018847958928792,77.63246480088854,69.67016071874613)"></circle><circle r="5" cx="195" cy="185" fill="#d1f1f4" transform="matrix(0.554285390941679,0,0,0.554285390941679,86.91434876637261,82.45720267578939)"></circle><circle r="5" cx="195" cy="195" fill="#d1f1f4" transform="matrix(0.4737538433471481,0,0,0.4737538433471481,102.61800054730612,102.61800054730612)"></circle></svg>