<svg xmlns="http://www.w3.org/2000/svg" width="325" height="193" viewBox="0 0 325 193" data-shape="true" aria-hidden="true" id="cs-pattern-left"><path fill="none" stroke="#05445E" stroke-miterlimit="50" stroke-width="2" d="M17.053 9.57a7.891 7.891 0 11-15.782 0 7.891 7.891 0 0115.782 0zM45.122 9.57a7.891 7.891 0 11-15.782 0 7.891 7.891 0 0115.782 0zM73.19 9.57a7.891 7.891 0 11-15.781 0 7.891 7.891 0 0115.782 0zM101.26 9.57a7.891 7.891 0 11-15.782 0 7.891 7.891 0 0115.782 0zM129.329 9.57a7.891 7.891 0 11-15.783 0 7.891 7.891 0 0115.783 0zM238.083 103.963v0l-.561 22.259v0l22.259-.561v0l-.561 22.258v0l22.259-.56v0l-.561 22.258v0l22.259-.56v0l-.559 22.26v0l22.26-.56v0"></path></svg>